<svg width="40" height="37" viewBox="0 0 40 37" fill="none" xmlns="http://www.w3.org/2000/svg">
<g clip-path="url(#clip0_30_2)">
<path d="M26.9003 14.8908C39.7353 50.3733 12.396 -25.2034 26.9003 14.8908ZM0.000500341 21.5588C-0.0226247 19.4944 0.754719 17.638 2.56831 16.9079C2.63566 16.8057 2.70167 16.7264 2.81917 16.6274C3.0287 16.4505 3.21894 16.398 3.46534 16.3035C12.1606 13.0844 15.4976 8.06854 17.3955 5.21581C17.9496 4.38305 18.3915 3.71885 18.8475 3.26071C19.1005 3.00653 19.2994 2.84315 19.5984 2.73017C19.9074 2.61334 20.195 2.60272 20.5955 2.66751C21.475 2.80958 22.3771 3.40003 23.2588 4.3192C25.2114 6.35473 27.2701 10.2125 28.7221 14.2262C30.181 18.2595 31.0445 22.5072 30.5982 25.3039C30.4142 26.4574 30.0084 27.4041 29.3367 28.0565L29.3357 28.0555C29.2967 28.0931 29.2539 28.1281 29.2077 28.1597C28.7463 28.4752 28.311 28.5978 27.8607 28.6151C27.4714 28.6301 27.1305 28.5635 26.7517 28.4844C26.0696 28.3417 25.4167 28.1543 24.713 27.9524C22.4215 27.295 19.5628 26.4754 15.0207 27.0117C14.9301 27.3145 14.8637 27.638 14.8609 27.9268C14.8591 28.1188 14.8783 28.2711 14.934 28.3223L15.0107 28.3927C15.4358 28.7819 15.6453 28.9731 15.7707 29.4452C15.8687 29.8144 15.8278 30.1325 15.7472 30.7587L15.7203 30.9695C15.6749 31.3287 15.8582 31.4075 16.0413 31.486C16.5778 31.7163 17.1143 31.9464 17.4053 32.7282C17.485 32.9094 17.5078 33.1109 17.4706 33.3056C17.2375 34.5105 16.5308 35.122 15.8246 35.7332C15.6857 35.8533 15.5466 35.9737 15.4225 36.0919L15.4209 36.0902C15.4008 36.1093 15.3799 36.1278 15.358 36.1455C13.6738 37.5008 12.5025 37.097 11.5964 35.9565C11.0188 35.2296 10.6529 34.2146 10.3114 33.2671L10.171 32.8834C9.68347 31.5555 9.31777 29.9679 8.94808 28.3153L8.85503 28.3442C8.48115 28.4557 8.10852 28.5715 7.73722 28.6915C7.70058 28.7033 7.68159 28.711 7.66605 28.7172C7.33386 28.8501 7.1673 28.9166 6.89956 28.82C4.6873 29.3917 2.84792 28.3069 1.61222 26.5669C1.10784 25.8566 0.708782 25.0322 0.43425 24.1734C0.161282 23.319 0.010266 22.4211 0.000500341 21.5588Z" fill="#333333"/>
<path fill-rule="evenodd" clip-rule="evenodd" d="M3.21409 17.7142C-1.36248 19.0691 1.63549 29.6187 6.99627 27.7729C7.20268 27.9027 7.19979 27.8416 7.44104 27.7633C8.1781 27.5234 8.92059 27.3009 9.66792 27.0958C10.1117 29.065 10.5144 31.0016 11.0818 32.5473C11.8058 34.5189 12.5598 37.1515 14.7544 35.3854C15.4467 34.7256 16.306 34.2172 16.5178 33.1223C16.1655 32.0586 14.5277 32.6859 14.7599 30.8472C14.9209 29.5739 14.9563 29.6648 14.281 29.0443C13.5973 28.4158 13.9535 26.9872 14.3098 26.1195C16.6935 25.7876 18.6428 25.8075 20.2961 25.995C18.2021 23.6114 16.7196 21.0882 15.8031 18.457C14.8834 15.8161 14.5367 13.078 14.7166 10.2734C12.438 12.6775 9.07206 15.2681 3.79924 17.2203C3.37026 17.3792 3.45862 17.3214 3.21409 17.7142Z" fill="#EDECF1"/>
<path d="M24.0143 27.7699C23.4436 27.6118 21.4387 27.226 21.0707 26.841C18.5634 24.2111 16.8286 21.4017 15.8031 18.457C14.7367 15.3946 14.4404 12.2018 14.8428 8.92584C14.8435 8.92591 15.0132 8.48351 15.0401 8.44836C15.6791 7.61418 16.3183 6.69485 16.8995 5.8591C17.6895 4.72277 18.3787 3.73158 18.8474 3.26071C19.1004 3.00653 19.2993 2.84315 19.5983 2.73017C19.9073 2.61334 20.1949 2.60272 20.5954 2.66751C21.4749 2.80958 22.377 3.40003 23.2587 4.3192C25.2113 6.35473 27.27 10.2125 28.7221 14.2262C30.181 18.2595 31.0444 22.5072 30.5981 25.3039C30.4141 26.4574 30.0083 27.4041 29.3366 28.0565L29.3356 28.0555C29.2966 28.0931 29.2539 28.128 29.2076 28.1597C28.7461 28.4753 28.3108 28.5977 27.8606 28.615C27.4711 28.63 27.1304 28.5635 26.7516 28.4844C26.104 28.3489 25.0728 28.0631 24.0143 27.7699Z" fill="#333333"/>
<path fill-rule="evenodd" clip-rule="evenodd" d="M21.7692 26.165C22.7505 26.3993 24.1 26.7875 25.2578 27.1028C22.8887 24.7142 20.9538 21.0444 19.6456 17.2874C18.2491 13.2772 17.5625 9.10732 17.8163 6.23926C17.1902 7.13917 16.4906 8.15182 15.8069 9.04434C15.0508 15.1998 16.8656 21.0216 21.7692 26.165Z" fill="#FD6974"/>
<path fill-rule="evenodd" clip-rule="evenodd" d="M9.65833 27.0882C10.0273 28.7389 10.6017 31.2395 11.0818 32.5473C11.8057 34.5189 12.5598 37.1515 14.7544 35.3854C15.4467 34.7257 16.306 34.2173 16.5178 33.1224C16.1655 32.0587 14.5277 32.6859 14.76 30.8473C14.9209 29.574 14.9563 29.6649 14.2811 29.0443C13.6228 28.4392 13.9286 27.0925 14.2701 26.2187C15.1637 25.7775 17.5903 25.7345 20.262 26.0024C18.5829 24.0903 17.3137 22.3039 16.1798 19.5178C13.6233 21.7746 12.2148 24.8313 9.65833 27.0882Z" fill="#DBD9E5"/>
<path d="M18.3534 3.93927C18.5124 3.55646 18.7285 3.25596 18.9949 3.03275C19.5901 2.53366 20.3023 2.47454 21.0858 2.78502C21.6511 3.00901 22.2632 3.44906 22.8897 4.06184C24.2997 5.44072 25.905 7.81275 27.2383 10.5748C28.9359 14.0912 30.3165 18.2405 30.7996 21.5803C31.0372 23.2226 31.0595 24.6964 30.8011 25.8466C30.4898 27.2331 29.785 28.1909 28.5935 28.5225C28.185 28.636 27.7378 28.6667 27.2506 28.6055C27.0609 28.5825 26.8822 28.5034 26.7372 28.3782C23.6915 26.186 21.2167 21.7992 19.6456 17.2873C17.8037 11.998 17.1962 6.43018 18.3534 3.93927ZM27.7308 5.06923C27.4115 5.33395 26.94 5.28976 26.677 4.96875C26.414 4.64734 26.4577 4.17285 26.7769 3.90821L31.2666 0.172714C31.5856 -0.0919282 32.0573 -0.0478212 32.3203 0.273272C32.5831 0.594522 32.5395 1.06909 32.2202 1.33396L27.7308 5.06923ZM34.038 23.5304C33.6247 23.5495 33.278 23.2251 33.2631 22.8078C33.2443 22.3924 33.5665 22.0429 33.981 22.0281L39.2246 21.8299C39.6351 21.8163 39.9821 22.1409 39.9996 22.5524C40.0073 22.7519 39.9364 22.9463 39.8021 23.0932C39.6679 23.2401 39.4813 23.3275 39.2831 23.3363L34.038 23.5304ZM33.8882 18.4037C33.4783 18.4587 33.1016 18.1681 33.0482 17.7598C32.9936 17.3473 33.2825 16.968 33.6881 16.9144L38.5325 16.2666C38.9424 16.2113 39.3193 16.5022 39.3724 16.9105C39.4273 17.3229 39.1381 17.7023 38.7328 17.7558L33.8882 18.4037ZM32.869 13.6971C32.4782 13.8334 32.0514 13.6253 31.9155 13.2319C31.8832 13.1383 31.8695 13.0393 31.8753 12.9404C31.881 12.8416 31.9061 12.7448 31.949 12.6557C31.9919 12.5666 32.0519 12.4869 32.1254 12.4211C32.1989 12.3553 32.2846 12.3047 32.3776 12.2723L37.3449 10.5373C37.7345 10.3964 38.163 10.6089 38.2985 11.0022C38.3636 11.1912 38.3514 11.3984 38.2648 11.5784C38.1781 11.7583 38.024 11.8963 37.8364 11.962L32.869 13.6971ZM30.5264 9.1641C30.1676 9.37041 29.7114 9.24461 29.5063 8.88374C29.3016 8.52263 29.4266 8.06363 29.7853 7.85733L34.492 5.13991C34.8507 4.93344 35.3069 5.05924 35.5119 5.42012C35.7167 5.78123 35.5917 6.24022 35.2328 6.44653L30.5264 9.1641Z" fill="#333333"/>
<path fill-rule="evenodd" clip-rule="evenodd" d="M19.248 4.31639C20.2407 1.91724 23.7961 5.67703 26.3652 10.9987C29.8674 18.2533 31.981 28.2159 27.3684 27.6353C21.0938 23.2096 17.2377 8.49634 19.248 4.31639Z" fill="white"/>
<path fill-rule="evenodd" clip-rule="evenodd" d="M26.9504 12.2662C30.0866 19.3574 31.7176 28.1829 27.3683 27.6354C25.4109 26.2549 23.689 23.873 22.3071 21.1223C19.7867 15.3391 18.729 8.54098 19.9937 5.91139C20.966 3.56168 24.396 7.11949 26.9504 12.2662Z" fill="#EDECF1"/>
<path fill-rule="evenodd" clip-rule="evenodd" d="M24.4985 17.4577C24.4985 18.9869 22.6433 22.0545 22.0164 20.7419C21.0525 18.7234 20.2687 16.6371 19.7727 14.4039C19.6144 13.6878 24.4985 13.7827 24.4985 17.4577Z" fill="#333333"/>
</g>
<defs>
<clipPath id="clip0_30_2">
<rect width="40" height="37" fill="white"/>
</clipPath>
</defs>
</svg>
