<svg width="200" height="57" viewBox="0 0 200 57" fill="none" xmlns="http://www.w3.org/2000/svg">
<path d="M52 0H61.2V56.8H52V0Z" fill="white"/>
<path d="M93.2 38.8C93.2 47.6 86 48.4 83.6 48.4C78 48.4 77.2 43.2 77.2 40.4V18.4H68V40C68 45.2 69.6 50 72.8 52.8C75.6 55.6 79.2 56.8 83.6 56.8C86.8 56.8 90.8 56 93.2 53.6V56.8H102.4V18.4H93.2V38.8Z" fill="white"/>
<path d="M120.4 4.40002H111.2V18.4H104.4V27.2H111.2V56.8H120.4V27.2H127.2V18.4H120.4V4.40002Z" fill="white"/>
<path d="M156 45.2C154 46.8 151.2 48 148.4 48C142 48 137.6 43.2 137.6 36.8C137.6 30.4 142 26 148.4 26C151.2 26 154 26.8 156 28.8L157.2 30L163.6 24L162 22.8C158.4 19.6 153.6 17.6 148.4 17.6C137.2 17.6 128.8 26 128.8 37.2C128.8 48.4 137.2 56.8 148.4 56.8C153.6 56.8 158.4 54.8 162 51.6L163.6 50.4L157.2 44L156 45.2Z" fill="white"/>
<path d="M196 21.6C193.2 18.8 190.4 17.6 186 17.6C182.8 17.6 179.6 18.4 177.2 20.8V0H168V56.8H177.2V35.6C177.2 26.8 183.2 26 185.6 26C191.2 26 190.8 31.2 190.8 34V56.4H200V34.4C200 29.2 198.8 24.4 196 21.6Z" fill="white"/>
<path d="M148 43.6001C151.535 43.6001 154.4 40.7347 154.4 37.2001C154.4 33.6654 151.535 30.8 148 30.8C144.465 30.8 141.6 33.6654 141.6 37.2001C141.6 40.7347 144.465 43.6001 148 43.6001Z" fill="#EF4335"/>
<path d="M39.2 42.7999C36 45.9999 31.2 48 26 48C16 48 8.8 40 8.8 29.2C8.8 18.4 16 10.4 26.4 10.4C31.2 10.4 36 12.3999 39.6 15.9999L40.8 17.2L46.8 11.2L45.6 9.99995C40.4 4.79995 33.6 1.99995 26.4 1.99995C11.2 1.59995 0 13.6 0 29.2C0 44.8 11.2 56.7999 26 56.7999C33.2 56.7999 40.4 53.9999 45.2 48.7999L46.4 47.6L40.4 41.6L39.2 42.7999Z" fill="white"/>
</svg>
