<svg width="60" height="52" viewBox="0 0 60 52" fill="none" xmlns="http://www.w3.org/2000/svg">
<path d="M56.8457 0H3.15434C1.41504 0 0 1.41504 0 3.15445V48.2551C0 49.9944 1.41504 51.4094 3.15434 51.4094H56.8457C58.585 51.4094 60 49.9944 60 48.2551V3.15445C60 1.41504 58.585 0 56.8457 0ZM14.8993 2.0134H53.6913V4.29527H14.8993V2.0134ZM10.6041 2.0134H12.8859V4.29527H10.6041V2.0134ZM6.30867 2.0134H8.59055V4.29527H6.30867V2.0134ZM2.0134 3.15445C2.0134 2.52527 2.52516 2.01352 3.15434 2.01352H4.29527V4.29539H2.0134V3.15445ZM57.9866 48.2551C57.9866 48.8843 57.4748 49.3961 56.8457 49.3961H3.15434C2.52516 49.3961 2.0134 48.8843 2.0134 48.2551V6.30879H57.9866V48.2551ZM57.9866 4.29527H55.7047V2.0134H56.8457C57.4748 2.0134 57.9866 2.52516 57.9866 3.15434V4.29527Z" fill="#120B37"/>
<path d="M54.698 8.5907H5.30202C4.74608 8.5907 4.29526 9.0414 4.29526 9.59746C4.29526 10.1534 4.74596 10.6042 5.30202 10.6042H54.698C55.2539 10.6042 55.7047 10.1535 55.7047 9.59746C55.7047 9.0414 55.2539 8.5907 54.698 8.5907Z" fill="#120B37"/>
<path d="M26.0402 36.1826C26.1715 36.1826 26.3044 36.1744 26.4375 36.1578L40.0554 34.4555C41.6309 34.2587 42.8188 32.913 42.8188 31.3254V22.4832C42.8188 21.9272 42.3681 21.4764 41.812 21.4764H35.3691C34.8131 21.4764 34.3623 21.9271 34.3623 22.4832C34.3623 23.0392 34.813 23.4899 35.3691 23.4899H40.8053V31.3256C40.8053 31.8998 40.3757 32.3865 39.8058 32.4576L26.1879 34.1599C25.6615 34.2256 25.1643 33.9248 24.9781 33.4284L21.251 23.4899H26.7783C27.3342 23.4899 27.785 23.0392 27.785 22.4832C27.785 21.9271 27.3343 21.4764 26.7783 21.4764H20.496L19.6528 19.2279C19.1938 18.0037 18.0068 17.1812 16.6993 17.1812H14.9661C14.4102 17.1812 13.9594 17.6319 13.9594 18.1879C13.9594 18.7438 14.4101 19.1947 14.9661 19.1947H16.6993C17.1722 19.1947 17.6015 19.4922 17.7675 19.9351L23.0926 34.1355C23.2231 34.4834 23.4103 34.7949 23.6387 35.0656L22.0836 37.6574C21.8661 37.61 21.6406 37.584 21.409 37.584C19.6697 37.584 18.2547 38.999 18.2547 40.7383C18.2547 42.4776 19.6697 43.8926 21.409 43.8926C22.7964 43.8926 23.9765 42.9919 24.3977 41.7449H36.6755C37.0966 42.9919 38.2768 43.8926 39.6642 43.8926C41.4035 43.8926 42.8186 42.4776 42.8186 40.7383C42.8186 38.999 41.4035 37.584 39.6642 37.584C38.2768 37.584 37.0968 38.4847 36.6755 39.7317H24.3977C24.2681 39.3478 24.0666 38.9969 23.8091 38.6949L25.3614 36.1078C25.5819 36.1563 25.8089 36.1826 26.0402 36.1826ZM21.4095 41.8791C20.7803 41.8791 20.2685 41.3674 20.2685 40.7382C20.2685 40.109 20.7803 39.5972 21.4095 39.5972C22.0386 39.5972 22.5504 40.109 22.5504 40.7382C22.5504 41.3674 22.0385 41.8791 21.4095 41.8791ZM39.6645 39.5972C40.2936 39.5972 40.8054 40.109 40.8054 40.7382C40.8054 41.3674 40.2936 41.8791 39.6645 41.8791C39.0353 41.8791 38.5235 41.3674 38.5235 40.7382C38.5235 40.1091 39.0353 39.5972 39.6645 39.5972Z" fill="#120B37"/>
<path d="M35.0071 26.0668C34.6139 25.6736 33.9765 25.6736 33.5835 26.0668L32.0806 27.5697V16.0403C32.0806 15.4844 31.6299 15.0336 31.0738 15.0336C30.5179 15.0336 30.067 15.4843 30.067 16.0403V27.5697L28.5641 26.0668C28.1709 25.6736 27.5336 25.6736 27.1405 26.0668C26.7474 26.4599 26.7474 27.0972 27.1405 27.4904L30.362 30.7118C30.5585 30.9084 30.8162 31.0067 31.0738 31.0067C31.3314 31.0067 31.5891 30.9085 31.7856 30.7118L35.0071 27.4904C35.4002 27.0973 35.4002 26.4599 35.0071 26.0668Z" fill="#120B37"/>
</svg>
