<svg width="200" height="68" viewBox="0 0 200 68" fill="none" xmlns="http://www.w3.org/2000/svg">
<path d="M85.1103 34.6911C85.1103 44.0809 77.7647 51 68.75 51C59.7353 51 52.3897 44.0809 52.3897 34.6911C52.3897 25.2353 59.7353 18.3823 68.75 18.3823C77.7647 18.3823 85.1103 25.2353 85.1103 34.6911ZM77.9485 34.6911C77.9485 28.8235 73.6912 24.8088 68.75 24.8088C63.8088 24.8088 59.5515 28.8235 59.5515 34.6911C59.5515 40.5 63.8088 44.5735 68.75 44.5735C73.6912 44.5735 77.9485 40.4926 77.9485 34.6911Z" fill="#EA4335"/>
<path d="M120.404 34.6911C120.404 44.0809 113.059 51 104.044 51C95.0294 51 87.6838 44.0809 87.6838 34.6911C87.6838 25.2426 95.0294 18.3823 104.044 18.3823C113.059 18.3823 120.404 25.2353 120.404 34.6911ZM113.243 34.6911C113.243 28.8235 108.985 24.8088 104.044 24.8088C99.103 24.8088 94.8456 28.8235 94.8456 34.6911C94.8456 40.5 99.103 44.5735 104.044 44.5735C108.985 44.5735 113.243 40.4926 113.243 34.6911Z" fill="#FBBC05"/>
<path d="M154.228 19.3676V48.647C154.228 60.6911 147.125 65.6103 138.728 65.6103C130.824 65.6103 126.066 60.3235 124.272 56L130.507 53.4044C131.618 56.0588 134.338 59.1911 138.721 59.1911C144.096 59.1911 147.426 55.875 147.426 49.6323V47.2867H147.176C145.574 49.2647 142.485 50.9926 138.588 50.9926C130.434 50.9926 122.963 43.8897 122.963 34.75C122.963 25.5441 130.434 18.3823 138.588 18.3823C142.478 18.3823 145.566 20.1103 147.176 22.0294H147.426V19.375H154.228V19.3676ZM147.934 34.75C147.934 29.0073 144.103 24.8088 139.228 24.8088C134.287 24.8088 130.147 29.0073 130.147 34.75C130.147 40.4338 134.287 44.5735 139.228 44.5735C144.103 44.5735 147.934 40.4338 147.934 34.75Z" fill="#4285F4"/>
<path d="M165.441 2.20593V50H158.456V2.20593H165.441Z" fill="#34A853"/>
<path d="M192.662 40.0588L198.221 43.7647C196.426 46.4191 192.103 50.9926 184.632 50.9926C175.368 50.9926 168.449 43.8309 168.449 34.6838C168.449 24.9853 175.426 18.375 183.831 18.375C192.294 18.375 196.434 25.1103 197.787 28.75L198.529 30.6029L176.728 39.6324C178.397 42.9044 180.993 44.5735 184.632 44.5735C188.279 44.5735 190.809 42.7794 192.662 40.0588ZM175.551 34.1912L190.125 28.1397C189.324 26.1029 186.912 24.6838 184.074 24.6838C180.434 24.6838 175.368 27.8971 175.551 34.1912Z" fill="#EA4335"/>
<path d="M25.9485 30.4485V23.5294H49.2647C49.4926 24.7353 49.6103 26.1618 49.6103 27.7059C49.6103 32.8971 48.1912 39.3162 43.6176 43.8897C39.1691 48.522 33.4853 50.9926 25.9559 50.9926C12 50.9926 0.264709 39.625 0.264709 25.6691C0.264709 11.7132 12 0.345581 25.9559 0.345581C33.6765 0.345581 39.1765 3.37499 43.3088 7.32352L38.4265 12.2059C35.4632 9.42646 31.4485 7.2647 25.9485 7.2647C15.7574 7.2647 7.78677 15.4779 7.78677 25.6691C7.78677 35.8603 15.7574 44.0735 25.9485 44.0735C32.5588 44.0735 36.3235 41.4191 38.7353 39.0073C40.6912 37.0515 41.9779 34.2573 42.4853 30.4412L25.9485 30.4485Z" fill="#4285F4"/>
</svg>
