<svg width="40" height="70" viewBox="0 0 40 70" fill="none" xmlns="http://www.w3.org/2000/svg">
<g clip-path="url(#clip0_52_30)">
<path fill-rule="evenodd" clip-rule="evenodd" d="M16.1918 11.8095C16.1918 11.0707 16.4027 10.385 16.7673 9.80136H23.2327C23.5973 10.381 23.8082 11.0707 23.8082 11.8095C23.8082 13.9116 22.102 15.6163 20 15.6163C17.898 15.6163 16.1918 13.9116 16.1918 11.8095ZM7.46531 30.8082C6.94286 30.8082 6.51837 30.385 6.51837 29.8612C6.51837 29.3401 6.94286 28.9156 7.46531 28.9156H32.5347C33.0571 28.9156 33.4816 29.3401 33.4816 29.8612C33.4816 30.385 33.0571 30.8082 32.5347 30.8082H7.46531ZM7.46531 36.3918C6.94286 36.3918 6.51837 35.9687 6.51837 35.4463C6.51837 34.9238 6.94286 34.4993 7.46531 34.4993H31.6095C32.132 34.4993 32.5565 34.9238 32.5565 35.4463C32.5565 35.9687 32.132 36.3918 31.6095 36.3918H7.46531ZM7.46531 41.9769C6.94286 41.9769 6.51837 41.5524 6.51837 41.0299C6.51837 40.5075 6.94286 40.0844 7.46531 40.0844H28.0844C28.6068 40.0844 29.0313 40.5075 29.0313 41.0299C29.0313 41.5524 28.6068 41.9769 28.0844 41.9769H7.46531ZM7.46531 53.1456C6.94286 53.1456 6.51837 52.7211 6.51837 52.1986C6.51837 51.6762 6.94286 51.2517 7.46531 51.2517H14.0517C14.5741 51.2517 14.9986 51.6762 14.9986 52.1986C14.9986 52.7211 14.5741 53.1456 14.0517 53.1456H7.46531ZM7.46531 47.5605C6.94286 47.5605 6.51837 47.1374 6.51837 46.615C6.51837 46.0925 6.94286 45.668 7.46531 45.668H17.9415C18.4639 45.668 18.8884 46.0925 18.8884 46.615C18.8884 47.1374 18.4639 47.5605 17.9415 47.5605H7.46531ZM7.51293 0H32.4884C36.6367 0 40 3.36871 40 7.51429V62.0299C40 66.1782 36.6367 69.5429 32.4884 69.5429H7.51293C3.36463 69.5429 0 66.1782 0 62.0299V7.50476C0 3.34694 3.35782 0 7.51293 0ZM2.58776 59.1061H37.4014V7.44218H2.58776V59.1061ZM19.9905 61.4571C21.6898 61.4571 23.0789 62.8259 23.0789 64.5456C23.0789 66.2476 21.7116 67.6354 19.9905 67.6354C18.2912 67.6354 16.9007 66.268 16.9007 64.5456C16.9007 62.8476 18.2694 61.4571 19.9905 61.4571ZM24.4912 53.083C24.6507 53.2229 24.7482 53.4204 24.7623 53.6321C24.7763 53.8439 24.7057 54.0525 24.566 54.2122C24.2762 54.5442 23.7701 54.5769 23.4381 54.2871L20.917 52.0776C20.585 51.7878 20.5524 51.2816 20.8422 50.9497L20.9238 50.8694L23.4381 48.6667C23.5171 48.5975 23.6089 48.5446 23.7083 48.5109C23.8077 48.4772 23.9128 48.4634 24.0175 48.4704C24.1223 48.4773 24.2246 48.5049 24.3187 48.5514C24.4128 48.5979 24.4969 48.6625 24.566 48.7415C24.6351 48.8205 24.6881 48.9123 24.7217 49.0117C24.7554 49.1111 24.7692 49.2162 24.7622 49.3209C24.7553 49.4257 24.7277 49.528 24.6812 49.6221C24.6347 49.7162 24.5701 49.8003 24.4912 49.8694L22.6571 51.4762L24.4912 53.083ZM30.5401 54.2871C30.3805 54.4264 30.1722 54.4968 29.9607 54.4828C29.7493 54.4688 29.5521 54.3715 29.4122 54.2122C29.1224 53.8789 29.1551 53.3742 29.4871 53.083L31.3211 51.4762L29.4871 49.8694C29.4081 49.8002 29.3435 49.7162 29.297 49.6221C29.2505 49.528 29.223 49.4257 29.2161 49.3209C29.202 49.1094 29.2726 48.901 29.4122 48.7415C29.5519 48.582 29.7492 48.4845 29.9607 48.4705C30.1722 48.4565 30.3806 48.527 30.5401 48.6667L33.0558 50.8694L33.1361 50.9497C33.2052 51.0286 33.2582 51.1204 33.2918 51.2199C33.3255 51.3193 33.3393 51.4244 33.3323 51.5291C33.3254 51.6339 33.2979 51.7362 33.2513 51.8303C33.2048 51.9244 33.1402 52.0084 33.0612 52.0776L30.5401 54.2871ZM26.8435 48.2095C26.9442 47.7796 27.3755 47.5116 27.8068 47.6109C28.2367 47.7116 28.5048 48.1429 28.4054 48.5741L26.9646 54.7429C26.8639 55.1728 26.4327 55.4422 26.0027 55.3415C25.7958 55.2932 25.6165 55.1648 25.504 54.9845C25.3916 54.8042 25.3551 54.5867 25.4027 54.3796L26.8435 48.2095ZM30.9905 11.9537V12.751C30.9905 13.4966 30.381 14.1075 29.634 14.1075H28.2463C28.0694 14.8898 27.785 15.6313 27.4095 16.3156L28.3361 17.2422C28.8626 17.7701 28.8626 18.6327 28.3361 19.1605L27.2082 20.2884C26.6803 20.8163 25.8177 20.8163 25.2898 20.2884L24.4449 19.4449C23.7345 19.8868 22.9623 20.2206 22.1537 20.4354V21.5878C22.1537 22.3333 21.5429 22.9442 20.7973 22.9442H19.2027C18.4558 22.9442 17.8463 22.3333 17.8463 21.5878V20.4517C17.0299 20.241 16.2498 19.9089 15.532 19.4667L14.7102 20.2884C14.1823 20.8163 13.3184 20.8163 12.7918 20.2884L11.6639 19.1605C11.1361 18.634 11.1361 17.7701 11.6639 17.2422L12.5524 16.3551C12.1599 15.651 11.8707 14.894 11.6939 14.1075H10.3646C9.61905 14.1075 9.00816 13.4966 9.00816 12.751V11.1565C9.00816 10.4313 9.58367 9.83537 10.3007 9.80136H14.8422C14.6244 10.4005 14.5134 11.0332 14.5143 11.6707C14.5143 11.7646 14.5156 11.8599 14.5211 11.9537C14.5156 12.0476 14.5143 12.1415 14.5143 12.2354C14.5143 15.249 16.9565 17.6925 19.9701 17.6925C22.9837 17.6925 25.4259 15.249 25.4259 12.2354C25.4259 12.1415 25.4245 12.0476 25.419 11.9537C25.4245 11.8599 25.4259 11.7646 25.4259 11.6707C25.4259 11.0136 25.3102 10.3837 25.098 9.80136H29.6993C30.415 9.83537 30.9905 10.4313 30.9905 11.1565V11.9537Z" fill="#120B37"/>
</g>
<defs>
<clipPath id="clip0_52_30">
<rect width="40" height="69.5429" fill="white"/>
</clipPath>
</defs>
</svg>
