<svg width="60" height="54" viewBox="0 0 60 54" fill="none" xmlns="http://www.w3.org/2000/svg">
<path d="M33.8644 13.0932C33.178 12.6865 32.2882 12.9153 31.8814 13.6017L24.2288 26.6695C23.8221 27.356 24.0509 28.2458 24.7373 28.6526C24.9661 28.7797 25.2204 28.856 25.4746 28.856C25.9831 28.856 26.4661 28.6017 26.7204 28.1441L34.3729 15.0763C34.7797 14.3644 34.5509 13.5 33.8644 13.0932Z" fill="#120B37"/>
<path d="M18.9661 12.1016C18.3305 11.5932 17.4407 11.7203 16.9322 12.3305L10.9322 19.8559C10.5254 20.3643 10.5 21.1271 10.9322 21.6355L16.9322 29.3389C17.2119 29.6949 17.6441 29.8982 18.0763 29.8982C18.3814 29.8982 18.7119 29.7966 18.9661 29.5932C19.6017 29.1101 19.7034 28.1949 19.2203 27.5593L13.9068 20.7457L19.1949 14.1101C19.678 13.5254 19.5763 12.6101 18.9661 12.1016Z" fill="#120B37"/>
<path d="M43.1186 12.3559C42.6356 11.7203 41.7203 11.6186 41.0847 12.1017C40.4491 12.5847 40.3474 13.5 40.8305 14.1356L46.144 20.9491L40.8559 27.5593C40.3729 28.1949 40.4746 29.0847 41.0847 29.5932C41.3644 29.7966 41.6695 29.8983 41.9746 29.8983C42.4068 29.8983 42.8135 29.7203 43.1186 29.3644L49.1186 21.839C49.5254 21.3305 49.5508 20.5678 49.1186 20.0593L43.1186 12.3559Z" fill="#120B37"/>
<path d="M55.4237 0H4.57627C2.05932 0 0 2.16102 0 4.80508V36.8898C0 39.5339 2.05932 41.6949 4.57627 41.6949H23.6949V50.6949H18.178C17.3898 50.6949 16.7288 51.3559 16.7288 52.1441C16.7288 52.9322 17.3898 53.5932 18.178 53.5932H41.8475C42.6356 53.5932 43.2966 52.9322 43.2966 52.1441C43.2966 51.3559 42.6356 50.6949 41.8475 50.6949H36.3305V41.6949H55.4237C57.9407 41.6949 60 39.5339 60 36.8898V4.83051C60 2.16102 57.9407 0 55.4237 0ZM33.4322 50.6949H26.5678V41.6949H33.4322V50.6949ZM57 36.8898C57 37.8814 56.2881 38.6949 55.4237 38.6949H4.57627C3.71186 38.6949 3 37.8814 3 36.8898V4.83051C3 3.83898 3.71186 3.02542 4.57627 3.02542H55.4237C56.2881 3.02542 57 3.83898 57 4.83051V36.8898Z" fill="#120B37"/>
</svg>
