<svg width="61" height="50" viewBox="0 0 61 50" fill="none" xmlns="http://www.w3.org/2000/svg">
<path d="M5.55573 6.17909C6.17931 6.17909 6.68483 5.67358 6.68483 5.04999C6.68483 4.42641 6.17931 3.9209 5.55573 3.9209C4.93215 3.9209 4.42664 4.42641 4.42664 5.04999C4.42664 5.67358 4.93215 6.17909 5.55573 6.17909Z" fill="#120B37"/>
<path d="M13.0868 6.17909C13.7104 6.17909 14.2159 5.67358 14.2159 5.04999C14.2159 4.42641 13.7104 3.9209 13.0868 3.9209C12.4632 3.9209 11.9577 4.42641 11.9577 5.04999C11.9577 5.67358 12.4632 6.17909 13.0868 6.17909Z" fill="#120B37"/>
<path d="M9.32685 6.17909C9.95043 6.17909 10.4559 5.67358 10.4559 5.04999C10.4559 4.42641 9.95043 3.9209 9.32685 3.9209C8.70327 3.9209 8.19775 4.42641 8.19775 5.04999C8.19775 5.67358 8.70327 6.17909 9.32685 6.17909Z" fill="#120B37"/>
<path d="M17.6032 21.4326L20.9905 18.0454C21.2031 17.8327 21.3225 17.5444 21.3225 17.2437C21.3225 16.943 21.2031 16.6547 20.9905 16.442C20.7779 16.2294 20.4895 16.11 20.1888 16.11C19.8882 16.11 19.5998 16.2294 19.3872 16.442L15.187 20.6536C14.9767 20.8651 14.8586 21.1513 14.8586 21.4496C14.8586 21.7479 14.9767 22.034 15.187 22.2456L19.3872 26.4571C19.4921 26.5629 19.617 26.6469 19.7546 26.7043C19.8922 26.7616 20.0398 26.7911 20.1888 26.7911C20.3379 26.7911 20.4855 26.7616 20.6231 26.7043C20.7606 26.6469 20.8855 26.5629 20.9905 26.4571C21.2008 26.2456 21.3188 25.9594 21.3188 25.6611C21.3188 25.3628 21.2008 25.0766 20.9905 24.8651L17.6032 21.4326Z" fill="#120B37"/>
<path d="M33.7717 26.4346C33.9833 26.6449 34.2694 26.7629 34.5677 26.7629C34.866 26.7629 35.1522 26.6449 35.3637 26.4346L39.5753 22.2795C39.7856 22.068 39.9036 21.7818 39.9036 21.4835C39.9036 21.1852 39.7856 20.8991 39.5753 20.6875L35.3637 16.476C35.1511 16.2649 34.8633 16.1469 34.5637 16.148C34.2641 16.149 33.9772 16.2691 33.7661 16.4817C33.5549 16.6943 33.4369 16.982 33.438 17.2817C33.4391 17.5813 33.5591 17.8682 33.7717 18.0793L37.159 21.4666L33.7717 24.8539C33.5648 25.0649 33.4489 25.3487 33.4489 25.6442C33.4489 25.9398 33.5648 26.2235 33.7717 26.4346Z" fill="#120B37"/>
<path d="M30.0231 16.8032C29.8943 16.7286 29.7519 16.6801 29.6042 16.6607C29.4566 16.6413 29.3065 16.6513 29.1628 16.6902C29.019 16.729 28.8843 16.7959 28.7665 16.887C28.6487 16.9781 28.55 17.0916 28.4763 17.221L24.3099 24.5375C24.2282 24.666 24.1734 24.8097 24.1487 24.96C24.124 25.1102 24.1299 25.2639 24.1661 25.4119C24.2023 25.5598 24.2681 25.6988 24.3595 25.8206C24.4508 25.9425 24.5659 26.0446 24.6977 26.1208C24.8296 26.197 24.9755 26.2457 25.1266 26.2641C25.2778 26.2824 25.4311 26.27 25.5774 26.2276C25.7236 26.1852 25.8598 26.1136 25.9776 26.0172C26.0955 25.9208 26.1927 25.8015 26.2633 25.6666L30.4748 18.384C30.5535 18.2517 30.6044 18.1046 30.6243 17.9519C30.6442 17.7993 30.6326 17.6441 30.5903 17.4961C30.548 17.348 30.4759 17.2102 30.3783 17.091C30.2808 16.9719 30.1599 16.8739 30.0231 16.8032Z" fill="#120B37"/>
<path d="M58.0924 32.4415C58.0258 32.441 57.9609 32.4202 57.9064 32.3818C57.8519 32.3435 57.8105 32.2895 57.7875 32.227C57.3382 31.0451 56.7015 29.9433 55.9019 28.9639C55.864 28.9091 55.8437 28.8442 55.8437 28.7776C55.8437 28.711 55.864 28.646 55.9019 28.5913C56.2458 27.9953 56.3391 27.2871 56.1612 26.6224C55.9834 25.9576 55.549 25.3906 54.9535 25.0459L54.1067 24.5378V3.9206C54.1067 3.02224 53.7498 2.16067 53.1145 1.52544C52.4793 0.890199 51.6177 0.533325 50.7194 0.533325H4.05397C3.1556 0.533325 2.29404 0.890199 1.6588 1.52544C1.02356 2.16067 0.666687 3.02224 0.666687 3.9206V32.5318C0.669659 33.2286 0.947784 33.8961 1.44051 34.3888C1.93324 34.8815 2.60066 35.1596 3.29747 35.1626H18.7322L17.6031 39.3403H16.1014C15.0016 39.341 13.9343 39.7125 13.0717 40.3948C12.2092 41.077 11.6019 42.0301 11.3479 43.1001H8.57034C8.27088 43.1001 7.98369 43.2191 7.77195 43.4308C7.5602 43.6426 7.44124 43.9298 7.44124 44.2292C7.44124 44.5287 7.5602 44.8159 7.77195 45.0276C7.98369 45.2394 8.27088 45.3583 8.57034 45.3583H37.3283C37.3092 45.6281 37.3359 45.8991 37.4074 46.16C37.492 46.4912 37.6427 46.8019 37.8503 47.0735C38.0579 47.3451 38.3181 47.5721 38.6155 47.7407L40.9979 49.1182C41.2937 49.288 41.62 49.3979 41.9583 49.4415C42.2966 49.4852 42.6401 49.4618 42.9694 49.3727C43.2986 49.2836 43.607 49.1305 43.8771 48.9221C44.1471 48.7138 44.3735 48.4543 44.5432 48.1585C44.5798 48.1009 44.6324 48.0552 44.6946 48.0271C44.7568 47.999 44.8259 47.9898 44.8933 48.0004C46.1336 48.2149 47.4015 48.2149 48.6418 48.0004C48.7105 47.9893 48.781 47.9995 48.8436 48.0298C48.9062 48.0601 48.958 48.109 48.9919 48.1698C49.222 48.5638 49.5519 48.8902 49.9483 49.1162C50.3448 49.3422 50.7937 49.4597 51.25 49.4569C51.7053 49.4613 52.1535 49.3444 52.5485 49.1182L54.9309 47.7407C55.2267 47.57 55.4857 47.3425 55.6931 47.0712C55.9004 46.7999 56.052 46.4902 56.139 46.16C56.2289 45.8317 56.2523 45.4888 56.2077 45.1514C56.1631 44.814 56.0514 44.489 55.8793 44.1953C55.8405 44.1389 55.8197 44.0719 55.8197 44.0034C55.8197 43.9349 55.8405 43.8679 55.8793 43.8115C56.6765 42.8345 57.313 41.7368 57.7649 40.5597C57.7864 40.4962 57.8276 40.4413 57.8824 40.4027C57.9372 40.3641 58.0028 40.344 58.0698 40.3451C58.7576 40.3422 59.4164 40.0676 59.9028 39.5812C60.3892 39.0949 60.6637 38.4361 60.6667 37.7482V34.9932C60.6549 34.3162 60.3792 33.6706 59.8983 33.1939C59.4175 32.7173 58.7694 32.4473 58.0924 32.4415ZM2.92487 3.9206C2.92487 3.62115 3.04383 3.33396 3.25558 3.12221C3.46732 2.91047 3.75451 2.79151 4.05397 2.79151H50.7194C51.0188 2.79151 51.306 2.91047 51.5178 3.12221C51.7295 3.33396 51.8485 3.62115 51.8485 3.9206V7.30788H2.92487V3.9206ZM3.29747 32.9044C3.24854 32.9044 3.20009 32.8948 3.15489 32.8761C3.10968 32.8573 3.0686 32.8299 3.03401 32.7953C2.99941 32.7607 2.97196 32.7196 2.95324 32.6744C2.93451 32.6292 2.92487 32.5808 2.92487 32.5318V9.56607H51.8485V23.4087C51.3142 23.2668 50.7485 23.2999 50.2343 23.5031C49.7202 23.7063 49.2848 24.069 48.9919 24.5378C48.9567 24.5935 48.9056 24.6373 48.8452 24.6635C48.7847 24.6897 48.7178 24.6971 48.6531 24.6846C47.4119 24.4813 46.1458 24.4813 44.9045 24.6846C44.8398 24.6987 44.7723 24.6921 44.7115 24.6658C44.6508 24.6395 44.5998 24.5947 44.5658 24.5378C44.3962 24.2418 44.1697 23.9823 43.8994 23.7743C43.629 23.5662 43.3202 23.4137 42.9906 23.3255C42.661 23.2374 42.3173 23.2153 41.9792 23.2606C41.641 23.3059 41.3152 23.4176 41.0205 23.5894L38.6381 24.9669C38.3415 25.1338 38.0816 25.3588 37.874 25.6284C37.6664 25.8981 37.5154 26.2069 37.43 26.5363C37.2494 27.202 37.3387 27.912 37.6784 28.5122C37.7196 28.5656 37.7419 28.6311 37.7419 28.6986C37.7419 28.766 37.7196 28.8315 37.6784 28.8848C36.8787 29.8643 36.2421 30.9661 35.7928 32.1479C35.7698 32.2104 35.7283 32.2645 35.6738 32.3028C35.6194 32.3411 35.5545 32.3619 35.4879 32.3625C34.9349 32.3632 34.3967 32.5413 33.9523 32.8705L3.29747 32.9044ZM33.4104 39.3403H19.8613L20.9904 35.1626H32.8458V37.7482C32.8531 38.3267 33.0516 38.8865 33.4104 39.3403ZM16.1127 41.5984H36.2105C36.4686 42.119 36.7629 42.6208 37.0912 43.1001H13.7303C13.9435 42.6515 14.2793 42.2724 14.6989 42.0067C15.1185 41.7409 15.6047 41.5994 16.1014 41.5984H16.1127ZM58.4311 37.7482C58.4311 37.8381 58.3954 37.9242 58.3319 37.9877C58.2683 38.0513 58.1822 38.087 58.0924 38.087C57.5664 38.0883 57.0532 38.2485 56.6199 38.5468C56.1867 38.845 55.8538 39.2672 55.6648 39.758C55.3039 40.71 54.7931 41.5981 54.1518 42.3888C53.8211 42.7973 53.6216 43.2961 53.5793 43.82C53.5369 44.3438 53.6539 44.8682 53.9147 45.3244C53.9329 45.3633 53.9423 45.4057 53.9423 45.4486C53.9423 45.4916 53.9329 45.534 53.9147 45.5728C53.9049 45.6177 53.8857 45.66 53.8585 45.6969C53.8313 45.7339 53.7966 45.7647 53.7566 45.7874L51.4081 47.1197C51.3689 47.1415 51.3257 47.1553 51.2811 47.1603C51.2365 47.1653 51.1914 47.1614 51.1483 47.1488C51.1053 47.1362 51.0651 47.1151 51.0302 47.0869C50.9954 47.0586 50.9665 47.0237 50.9452 46.9842C50.6782 46.5292 50.2796 46.1658 49.8018 45.9421C49.3241 45.7183 48.7897 45.6447 48.2692 45.7309C47.2753 45.9002 46.2598 45.9002 45.2659 45.7309C44.7442 45.6457 44.209 45.7211 43.7311 45.9469C43.2533 46.1727 42.8553 46.5384 42.5899 46.9955C42.543 47.0712 42.469 47.1262 42.383 47.1493C42.297 47.1723 42.2055 47.1618 42.127 47.1197L39.7446 45.7422C39.7047 45.7195 39.67 45.6887 39.6427 45.6517C39.6155 45.6148 39.5964 45.5725 39.5865 45.5277C39.5684 45.4888 39.559 45.4464 39.559 45.4035C39.559 45.3606 39.5684 45.3182 39.5865 45.2793C39.8443 44.8221 39.9595 44.2983 39.9173 43.7752C39.875 43.252 39.6773 42.7535 39.3494 42.3436C38.7023 41.555 38.1875 40.6665 37.8251 39.7128C37.6358 39.2349 37.3076 38.8247 36.883 38.5349C36.4584 38.2451 35.9568 38.0891 35.4427 38.087C35.3529 38.087 35.2668 38.0513 35.2032 37.9877C35.1397 37.9242 35.104 37.8381 35.104 37.7482V34.9932C35.1024 34.9483 35.1101 34.9036 35.1266 34.8618C35.1431 34.82 35.1679 34.782 35.1997 34.7502C35.2315 34.7184 35.2695 34.6935 35.3113 34.6771C35.3531 34.6606 35.3978 34.6529 35.4427 34.6545C35.9671 34.6525 36.4786 34.4918 36.9099 34.1935C37.3412 33.8952 37.6721 33.4734 37.859 32.9835C38.2188 32.0286 38.7339 31.1397 39.3833 30.3527C39.7111 29.9428 39.9089 29.4443 39.9511 28.9211C39.9934 28.398 39.8782 27.8742 39.6204 27.417C39.602 27.3762 39.5925 27.332 39.5925 27.2872C39.5925 27.2424 39.602 27.1982 39.6204 27.1573C39.6296 27.1137 39.6486 27.0727 39.676 27.0375C39.7033 27.0022 39.7384 26.9737 39.7785 26.9541L42.1609 25.5766C42.2163 25.5612 42.2748 25.5612 42.3302 25.5766C42.3867 25.5773 42.4421 25.5922 42.4914 25.6198C42.5407 25.6474 42.5824 25.6869 42.6125 25.7347C42.879 26.1907 43.2772 26.5554 43.7548 26.7811C44.2323 27.0068 44.7669 27.0828 45.2884 26.9993C46.2824 26.8299 47.2979 26.8299 48.2918 26.9993C48.8168 27.0702 49.351 26.9809 49.8244 26.7432C50.2979 26.5055 50.6885 26.1303 50.9452 25.6669C50.9673 25.6297 50.9965 25.5972 51.0312 25.5713C51.0659 25.5455 51.1055 25.5267 51.1475 25.5162C51.1895 25.5057 51.2331 25.5037 51.2759 25.5102C51.3187 25.5166 51.3598 25.5316 51.3968 25.554L53.7792 26.9315C53.8193 26.9512 53.8543 26.9797 53.8817 27.0149C53.9091 27.0501 53.9281 27.0911 53.9373 27.1348C53.9557 27.1756 53.9652 27.2198 53.9652 27.2646C53.9652 27.3094 53.9557 27.3536 53.9373 27.3944C53.6774 27.849 53.561 28.3714 53.6033 28.8933C53.6456 29.4152 53.8447 29.9121 54.1744 30.3188C54.8159 31.1135 55.3267 32.0054 55.6874 32.9609C55.8654 33.4599 56.1905 33.8933 56.6199 34.2037C57.0492 34.5141 57.5627 34.6871 58.0924 34.6997C58.1373 34.6981 58.182 34.7058 58.2238 34.7222C58.2656 34.7387 58.3036 34.7636 58.3354 34.7954C58.3672 34.8272 58.392 34.8651 58.4085 34.9069C58.425 34.9487 58.4327 34.9935 58.4311 35.0384V37.7482Z" fill="#120B37"/>
<path d="M46.7675 31.2448C45.7536 31.2448 44.7626 31.5454 43.9196 32.1087C43.0766 32.6719 42.4196 33.4725 42.0316 34.4092C41.6436 35.3458 41.5421 36.3765 41.7399 37.3709C41.9377 38.3653 42.4259 39.2786 43.1428 39.9955C43.8597 40.7124 44.7731 41.2006 45.7674 41.3984C46.7618 41.5962 47.7925 41.4947 48.7291 41.1067C49.6658 40.7187 50.4664 40.0617 51.0297 39.2187C51.5929 38.3758 51.8936 37.3847 51.8936 36.3708C51.8936 35.0113 51.3535 33.7075 50.3922 32.7461C49.4308 31.7848 48.127 31.2448 46.7675 31.2448ZM46.7675 39.2387C46.2003 39.2387 45.6458 39.0705 45.1742 38.7554C44.7025 38.4403 44.3349 37.9924 44.1179 37.4683C43.9008 36.9443 43.844 36.3677 43.9547 35.8113C44.0653 35.255 44.3385 34.744 44.7396 34.3429C45.1406 33.9418 45.6517 33.6687 46.208 33.558C46.7643 33.4474 47.3409 33.5042 47.865 33.7212C48.389 33.9383 48.8369 34.3059 49.152 34.7775C49.4672 35.2491 49.6354 35.8036 49.6354 36.3708C49.6294 37.1275 49.3246 37.8512 48.7874 38.3842C48.2503 38.9171 47.5242 39.2162 46.7675 39.2162V39.2387Z" fill="#120B37"/>
</svg>
