<svg width="585" height="517" viewBox="0 0 585 517" fill="none" xmlns="http://www.w3.org/2000/svg">
<path d="M454.825 516.495C397.048 516.495 349.675 471.949 345.175 415.329H481.612C488.733 415.329 494.735 410.56 496.597 404.047H502.707C508.14 404.047 512.547 399.641 512.547 394.207V312.837C543.92 332.213 564.825 366.912 564.825 406.495C564.825 467.245 515.576 516.495 454.825 516.495Z" fill="#EEE7F5"/>
<path d="M89.7802 329.668C50.0036 295.316 24.825 244.509 24.825 187.828C24.825 84.3667 108.697 0.49469 212.159 0.49469C290.316 0.49469 357.299 48.3666 385.385 116.381H105.365C96.764 116.381 89.7802 123.365 89.7802 131.967V329.668Z" fill="#EEE7F5"/>
<path d="M540.611 219.544L540.16 219.052C536.437 222.461 531.739 224.143 527.048 224.143C521.781 224.143 516.537 222.024 512.711 217.844C509.301 214.121 507.62 209.424 507.62 204.733C507.62 199.467 509.74 194.223 513.919 190.395C517.643 186.985 522.34 185.305 527.031 185.304C532.297 185.305 537.541 187.424 541.369 191.603C544.777 195.327 546.459 200.024 546.459 204.715C546.459 209.981 544.339 215.225 540.16 219.052L540.611 219.544L541.061 220.036C545.525 215.948 547.793 210.336 547.792 204.715C547.793 199.707 545.993 194.679 542.352 190.703C538.264 186.237 532.653 183.971 527.031 183.971C522.023 183.971 516.995 185.771 513.019 189.412C508.553 193.5 506.285 199.111 506.287 204.733C506.285 209.74 508.085 214.768 511.727 218.745C515.815 223.209 521.425 225.477 527.048 225.476C532.056 225.477 537.084 223.677 541.06 220.036L540.611 219.544ZM554.041 169.056L553.591 168.564L548 173.684C547.78 173.887 547.591 174.101 547.423 174.32L547.952 174.725L548.333 174.179C544.716 171.657 540.739 169.845 536.6 168.752L536.429 169.397L537.081 169.539C537.139 169.271 537.187 168.983 537.2 168.676L537.496 161.099L537.5 160.903C537.499 158.261 535.411 156.069 532.751 155.963L525.173 155.664L524.979 155.66C522.337 155.661 520.144 157.751 520.039 160.412L519.74 167.988L519.736 168.148C519.736 168.397 519.759 168.635 519.789 168.857L520.451 168.767L520.331 168.111C516.233 168.855 512.232 170.291 508.512 172.427L508.844 173.004L509.405 172.645C509.259 172.416 509.089 172.184 508.887 171.963V171.964L503.767 166.372C502.793 165.308 501.453 164.767 500.117 164.768C498.925 164.767 497.725 165.197 496.779 166.064L491.188 171.184C490.124 172.157 489.583 173.496 489.584 174.833C489.583 176.024 490.013 177.225 490.88 178.172L496 183.763C496.201 183.983 496.417 184.172 496.635 184.34L497.041 183.812L496.495 183.431C493.972 187.048 492.161 191.024 491.068 195.163L491.712 195.333L491.853 194.681C491.585 194.624 491.299 194.577 490.992 194.564L483.413 194.267L483.216 194.263C481.98 194.261 480.796 194.72 479.88 195.56L479.868 195.571L479.845 195.595L480.316 196.067L479.864 195.576C478.896 196.469 478.329 197.699 478.279 199.015L477.98 206.603V206.617H478.647L477.981 206.591L477.977 206.787C477.977 209.427 480.067 211.62 482.728 211.725L490.304 212.024L490.455 212.027C490.709 212.027 490.949 212.003 491.173 211.972L491.081 211.312L490.425 211.431C491.171 215.529 492.607 219.531 494.741 223.252L495.32 222.92L494.963 222.357C494.731 222.505 494.499 222.676 494.28 222.876L488.688 227.997C487.624 228.971 487.083 230.309 487.084 231.645C487.083 232.837 487.513 234.037 488.38 234.984L493.5 240.576C494.473 241.639 495.812 242.18 497.149 242.18C498.34 242.18 499.541 241.751 500.488 240.884L506.079 235.763C506.299 235.563 506.489 235.347 506.656 235.128L506.128 234.723L505.747 235.269C509.365 237.792 513.343 239.604 517.481 240.696L517.652 240.051L517.001 239.908C516.944 240.171 516.892 240.459 516.88 240.776V240.773L516.583 248.348L516.579 248.549C516.577 249.795 517.044 250.984 517.893 251.9C518.785 252.868 520.015 253.435 521.331 253.485L528.905 253.783L529.1 253.787C530.38 253.787 531.556 253.295 532.437 252.488C533.376 251.629 533.988 250.405 534.043 249.035L534.34 241.459V241.456L534.343 241.316C534.343 241.057 534.319 240.816 534.288 240.591L533.628 240.681L533.747 241.337C537.844 240.593 541.847 239.156 545.567 237.021L545.236 236.443L544.673 236.803C544.821 237.033 544.992 237.264 545.193 237.484L550.313 243.076C551.287 244.139 552.625 244.68 553.961 244.68C555.153 244.68 556.353 244.251 557.3 243.384L562.892 238.263C563.955 237.291 564.496 235.951 564.496 234.615C564.496 233.423 564.067 232.223 563.2 231.276L558.079 225.684C557.877 225.465 557.663 225.275 557.443 225.107L557.037 225.636L557.584 226.017C560.108 222.399 561.919 218.421 563.012 214.281L562.367 214.112L562.224 214.763C562.489 214.821 562.776 214.871 563.089 214.884L570.665 215.181L570.86 215.185C572.139 215.185 573.317 214.693 574.197 213.885C575.136 213.028 575.748 211.803 575.801 210.433L576.1 202.857L576.103 202.664C576.103 200.021 574.012 197.828 571.352 197.721L563.775 197.424L563.612 197.421C563.365 197.421 563.129 197.443 562.907 197.472L562.996 198.133L563.652 198.015C562.908 193.917 561.472 189.916 559.337 186.196L558.759 186.528L559.117 187.089C559.348 186.943 559.58 186.773 559.8 186.571L565.392 181.451C566.455 180.477 566.997 179.139 566.996 177.801C566.996 176.611 566.567 175.409 565.7 174.464L560.579 168.872C559.605 167.808 558.267 167.267 556.929 167.268C555.739 167.267 554.537 167.697 553.591 168.564L554.041 169.056L554.492 169.548C555.185 168.913 556.056 168.601 556.929 168.601C557.912 168.601 558.884 168.995 559.595 169.772L564.716 175.364C565.351 176.057 565.661 176.927 565.663 177.801C565.661 178.783 565.269 179.755 564.491 180.467L558.9 185.588C558.748 185.727 558.581 185.851 558.4 185.967L557.864 186.308L558.18 186.86C560.239 190.445 561.623 194.301 562.34 198.252L562.453 198.879L563.084 198.795C563.268 198.769 563.444 198.755 563.612 198.755L563.721 198.756L571.299 199.053C573.239 199.128 574.771 200.737 574.769 202.664L574.767 202.805L574.469 210.381C574.429 211.384 573.985 212.272 573.297 212.901C572.651 213.495 571.795 213.852 570.86 213.852L570.717 213.849L563.141 213.551C562.94 213.543 562.732 213.509 562.509 213.46L561.885 213.324L561.723 213.941C560.669 217.933 558.923 221.767 556.491 225.255L556.125 225.777L556.632 226.165C556.8 226.295 556.955 226.432 557.096 226.585L562.216 232.176C562.851 232.869 563.161 233.74 563.163 234.615C563.161 235.596 562.769 236.568 561.991 237.28L556.4 242.4C555.707 243.035 554.836 243.345 553.961 243.347C552.98 243.345 552.008 242.953 551.296 242.176L546.176 236.584C546.037 236.432 545.912 236.264 545.797 236.084L545.455 235.549L544.904 235.865C541.317 237.923 537.46 239.308 533.508 240.025L532.88 240.139L532.967 240.771C532.993 240.961 533.009 241.141 533.009 241.316L533.008 241.409V241.407L532.709 248.983C532.671 249.985 532.225 250.873 531.537 251.504C530.889 252.096 530.035 252.453 529.1 252.453L528.957 252.451L521.383 252.153C520.415 252.113 519.529 251.707 518.872 250.996C518.248 250.319 517.912 249.463 517.912 248.549L517.915 248.401L518.213 240.825V240.823C518.22 240.625 518.253 240.417 518.303 240.195L518.44 239.569L517.823 239.407C513.831 238.353 509.997 236.607 506.508 234.176L505.987 233.812L505.599 234.316C505.469 234.485 505.331 234.64 505.179 234.779L499.587 239.9C498.893 240.535 498.023 240.845 497.149 240.847C496.168 240.845 495.196 240.453 494.484 239.676L489.364 234.084C488.729 233.391 488.417 232.52 488.417 231.645C488.417 230.664 488.811 229.693 489.588 228.98L495.179 223.86C495.331 223.721 495.499 223.597 495.677 223.483L496.215 223.141L495.899 222.588C493.84 219.001 492.456 215.145 491.737 211.192L491.624 210.564L490.991 210.651C490.804 210.677 490.625 210.693 490.455 210.693L490.356 210.692L482.78 210.393C480.84 210.319 479.309 208.711 479.311 206.787L479.313 206.643V206.629V206.628L479.611 199.067C479.649 198.097 480.057 197.215 480.768 196.556L480.779 196.547L480.801 196.523L480.331 196.052L480.781 196.544C481.456 195.927 482.307 195.597 483.216 195.596L483.361 195.599L490.939 195.896C491.141 195.904 491.352 195.937 491.571 195.985L492.193 196.12L492.356 195.504C493.411 191.513 495.157 187.68 497.588 184.193L497.952 183.671L497.448 183.283C497.277 183.152 497.123 183.015 496.984 182.863L491.864 177.271C491.229 176.577 490.917 175.707 490.917 174.833C490.917 173.852 491.311 172.88 492.088 172.168L497.679 167.048C498.372 166.413 499.243 166.101 500.117 166.101C501.099 166.101 502.071 166.495 502.783 167.272L507.904 172.864L507.905 172.865C508.043 173.015 508.165 173.181 508.281 173.364L508.624 173.899L509.175 173.583C512.761 171.525 516.617 170.14 520.569 169.423L521.197 169.308L521.111 168.676C521.085 168.492 521.069 168.316 521.069 168.148L521.072 168.043L521.371 160.465C521.445 158.524 523.053 156.993 524.979 156.993L525.121 156.997L532.697 157.295C534.637 157.369 536.168 158.979 536.167 160.903L536.164 161.047L535.868 168.623V168.621C535.859 168.824 535.827 169.033 535.779 169.255L535.643 169.879L536.259 170.041C540.251 171.096 544.084 172.841 547.571 175.272L548.092 175.637L548.48 175.132C548.609 174.963 548.748 174.808 548.9 174.668L554.492 169.548L554.041 169.056Z" fill="#212C5A"/>
<path d="M45.0406 254.181H38.4745C37.9303 254.181 37.4885 253.74 37.4885 253.196C37.4885 252.652 37.9303 252.211 38.4745 252.211H45.0406C45.5844 252.211 46.0254 252.652 46.0254 253.196C46.0254 253.74 45.5844 254.181 45.0406 254.181ZM58.1745 254.181H51.6073C51.0636 254.181 50.6224 253.74 50.6224 253.196C50.6224 252.652 51.0636 252.211 51.6073 252.211H58.1745C58.7177 252.211 59.1588 252.652 59.1588 253.196C59.1588 253.74 58.7177 254.181 58.1745 254.181ZM71.3073 254.181H64.7406C64.1969 254.181 63.7557 253.74 63.7557 253.196C63.7557 252.652 64.1969 252.211 64.7406 252.211H71.3073C71.8505 252.211 72.2921 252.652 72.2921 253.196C72.2921 253.74 71.8505 254.181 71.3073 254.181ZM84.4406 254.181H77.8735C77.3297 254.181 76.8885 253.74 76.8885 253.196C76.8885 252.652 77.3297 252.211 77.8735 252.211H84.4406C84.9844 252.211 85.4254 252.652 85.4254 253.196C85.4254 253.74 84.9844 254.181 84.4406 254.181ZM97.5733 254.181H91.0068C90.4636 254.181 90.0218 253.74 90.0218 253.196C90.0218 252.652 90.4636 252.211 91.0068 252.211H97.5733C98.1173 252.211 98.5586 252.652 98.5586 253.196C98.5586 253.74 98.1173 254.181 97.5733 254.181ZM110.707 254.181H104.14C103.596 254.181 103.156 253.74 103.156 253.196C103.156 252.652 103.596 252.211 104.14 252.211H110.707C111.251 252.211 111.692 252.652 111.692 253.196C111.692 253.74 111.251 254.181 110.707 254.181ZM123.84 254.181H117.273C116.729 254.181 116.288 253.74 116.288 253.196C116.288 252.652 116.729 252.211 117.273 252.211H123.84C124.384 252.211 124.824 252.652 124.824 253.196C124.824 253.74 124.384 254.181 123.84 254.181ZM136.973 254.181H130.407C129.863 254.181 129.421 253.74 129.421 253.196C129.421 252.652 129.863 252.211 130.407 252.211H136.973C137.517 252.211 137.959 252.652 137.959 253.196C137.959 253.74 137.517 254.181 136.973 254.181ZM150.107 254.181H143.54C142.996 254.181 142.555 253.74 142.555 253.196C142.555 252.652 142.996 252.211 143.54 252.211H150.107C150.651 252.211 151.092 252.652 151.092 253.196C151.092 253.74 150.651 254.181 150.107 254.181ZM163.24 254.181H156.673C156.129 254.181 155.688 253.74 155.688 253.196C155.688 252.652 156.129 252.211 156.673 252.211H163.24C163.784 252.211 164.224 252.652 164.224 253.196C164.224 253.74 163.784 254.181 163.24 254.181ZM176.373 254.181H169.807C169.263 254.181 168.821 253.74 168.821 253.196C168.821 252.652 169.263 252.211 169.807 252.211H176.373C176.916 252.211 177.357 252.652 177.357 253.196C177.357 253.74 176.916 254.181 176.373 254.181ZM189.505 254.181H182.939C182.396 254.181 181.955 253.74 181.955 253.196C181.955 252.652 182.396 252.211 182.939 252.211H189.505C190.049 252.211 190.491 252.652 190.491 253.196C190.491 253.74 190.049 254.181 189.505 254.181ZM25.8568 257.192C25.5098 257.192 25.1745 257.011 24.9948 256.687C24.7302 256.211 24.901 255.611 25.3765 255.348C27.3734 254.239 29.5114 253.409 31.7312 252.883C32.2666 252.76 32.7917 253.085 32.9172 253.615C33.0427 254.144 32.715 254.675 32.186 254.8C30.1417 255.284 28.1729 256.047 26.3338 257.069C26.1817 257.153 26.0182 257.192 25.8568 257.192ZM16.6312 266.308C16.4656 266.308 16.2978 266.267 16.1437 266.18C15.6713 265.909 15.5078 265.307 15.777 264.836C16.9068 262.857 18.3036 261.04 19.9286 259.435C20.3156 259.053 20.939 259.056 21.3213 259.443C21.7036 259.831 21.701 260.453 21.3136 260.836C19.8156 262.316 18.5276 263.991 17.488 265.812C17.3057 266.131 16.974 266.308 16.6312 266.308ZM13.476 278.887C12.9317 278.887 12.4912 278.445 12.4912 277.903V277.237C12.4912 275.18 12.7412 273.133 13.2349 271.157C13.3672 270.629 13.912 270.308 14.4286 270.44C14.9573 270.572 15.2786 271.107 15.1464 271.633C14.6917 273.456 14.4604 275.341 14.4604 277.237V277.903C14.4604 278.445 14.0197 278.887 13.476 278.887ZM13.476 292.02C12.9317 292.02 12.4912 291.579 12.4912 291.035V284.468C12.4912 283.924 12.9317 283.483 13.476 283.483C14.0197 283.483 14.4604 283.924 14.4604 284.468V291.035C14.4604 291.579 14.0197 292.02 13.476 292.02ZM13.476 305.153C12.9317 305.153 12.4912 304.712 12.4912 304.168V297.601C12.4912 297.057 12.9317 296.617 13.476 296.617C14.0197 296.617 14.4604 297.057 14.4604 297.601V304.168C14.4604 304.712 14.0197 305.153 13.476 305.153ZM13.476 318.287C12.9317 318.287 12.4912 317.845 12.4912 317.301V310.735C12.4912 310.191 12.9317 309.749 13.476 309.749C14.0197 309.749 14.4604 310.191 14.4604 310.735V317.301C14.4604 317.845 14.0197 318.287 13.476 318.287ZM13.476 331.419C12.9317 331.419 12.4912 330.979 12.4912 330.435V323.868C12.4912 323.324 12.9317 322.883 13.476 322.883C14.0197 322.883 14.4604 323.324 14.4604 323.868V330.435C14.4604 330.979 14.0197 331.419 13.476 331.419ZM13.476 344.553C12.9317 344.553 12.4912 344.112 12.4912 343.568V337.001C12.4912 336.457 12.9317 336.016 13.476 336.016C14.0197 336.016 14.4604 336.457 14.4604 337.001V343.568C14.4604 344.112 14.0197 344.553 13.476 344.553ZM13.476 357.687C12.9317 357.687 12.4912 357.244 12.4912 356.7V350.133C12.4912 349.591 12.9317 349.149 13.476 349.149C14.0197 349.149 14.4604 349.591 14.4604 350.133V356.7C14.4604 357.244 14.0197 357.687 13.476 357.687ZM13.476 370.819C12.9317 370.819 12.4912 370.377 12.4912 369.835V363.268C12.4912 362.724 12.9317 362.283 13.476 362.283C14.0197 362.283 14.4604 362.724 14.4604 363.268V369.835C14.4604 370.377 14.0197 370.819 13.476 370.819ZM13.476 383.953C12.9317 383.953 12.4912 383.512 12.4912 382.967V376.401C12.4912 375.856 12.9317 375.415 13.476 375.415C14.0197 375.415 14.4604 375.856 14.4604 376.401V382.967C14.4604 383.512 14.0197 383.953 13.476 383.953ZM13.476 397.085C12.9317 397.085 12.4912 396.644 12.4912 396.1V389.533C12.4912 388.991 12.9317 388.549 13.476 388.549C14.0197 388.549 14.4604 388.991 14.4604 389.533V396.1C14.4604 396.644 14.0197 397.085 13.476 397.085ZM13.476 410.219C12.9317 410.219 12.4912 409.777 12.4912 409.235V402.668C12.4912 402.124 12.9317 401.683 13.476 401.683C14.0197 401.683 14.4604 402.124 14.4604 402.668V409.235C14.4604 409.777 14.0197 410.219 13.476 410.219ZM13.476 423.352C12.9317 423.352 12.4912 422.911 12.4912 422.367V415.8C12.4912 415.256 12.9317 414.815 13.476 414.815C14.0197 414.815 14.4604 415.256 14.4604 415.8V422.367C14.4604 422.911 14.0197 423.352 13.476 423.352ZM13.476 436.485C12.9317 436.485 12.4912 436.044 12.4912 435.5V428.933C12.4912 428.391 12.9317 427.949 13.476 427.949C14.0197 427.949 14.4604 428.391 14.4604 428.933V435.5C14.4604 436.044 14.0197 436.485 13.476 436.485ZM15.8656 449.255C15.4984 449.255 15.1473 449.051 14.976 448.697C13.9844 446.639 13.277 444.459 12.8786 442.216C12.7838 441.68 13.1406 441.168 13.676 441.075C14.2084 440.984 14.7229 441.335 14.8177 441.871C15.186 443.937 15.836 445.945 16.7516 447.841C16.9874 448.332 16.7822 448.92 16.2926 449.156C16.1541 449.224 16.0088 449.255 15.8656 449.255ZM24.4484 458.977C24.2645 458.977 24.0792 458.925 23.913 458.818C22.0036 457.579 20.2672 456.083 18.7536 454.371C18.3942 453.964 18.4333 453.341 18.8412 452.98C19.2464 452.622 19.8697 452.657 20.2306 453.067C21.6254 454.645 23.2245 456.024 24.9854 457.165C25.4426 457.463 25.5713 458.072 25.275 458.528C25.0869 458.818 24.7713 458.977 24.4484 458.977ZM36.8297 462.825H36.803C34.5136 462.761 32.2526 462.388 30.0812 461.713C29.5614 461.551 29.2718 461 29.4333 460.479C29.5948 459.963 30.1417 459.671 30.6656 459.832C32.665 460.453 34.7484 460.797 36.8578 460.856C37.4011 460.871 37.8306 461.325 37.8145 461.868C37.7989 462.403 37.3625 462.825 36.8297 462.825ZM49.9636 462.836H43.3964C42.8526 462.836 42.4114 462.395 42.4114 461.851C42.4114 461.306 42.8526 460.865 43.3964 460.865H49.9636C50.5068 460.865 50.9484 461.306 50.9484 461.851C50.9484 462.395 50.5068 462.836 49.9636 462.836ZM63.0964 462.836H56.5297C55.986 462.836 55.5448 462.395 55.5448 461.851C55.5448 461.306 55.986 460.865 56.5297 460.865H63.0964C63.6406 460.865 64.0812 461.306 64.0812 461.851C64.0812 462.395 63.6406 462.836 63.0964 462.836ZM76.2297 462.836H69.663C69.1188 462.836 68.6781 462.395 68.6781 461.851C68.6781 461.306 69.1188 460.865 69.663 460.865H76.2297C76.7734 460.865 77.2145 461.306 77.2145 461.851C77.2145 462.395 76.7734 462.836 76.2297 462.836ZM89.3631 462.836H82.7958C82.2526 462.836 81.8109 462.395 81.8109 461.851C81.8109 461.306 82.2526 460.865 82.7958 460.865H89.3631C89.9068 460.865 90.3473 461.306 90.3473 461.851C90.3473 462.395 89.9068 462.836 89.3631 462.836ZM102.496 462.836H95.9293C95.3853 462.836 94.944 462.395 94.944 461.851C94.944 461.306 95.3853 460.865 95.9293 460.865H102.496C103.04 460.865 103.481 461.306 103.481 461.851C103.481 462.395 103.04 462.836 102.496 462.836ZM112.008 462.836H109.063C108.519 462.836 108.077 462.395 108.077 461.851C108.077 461.306 108.519 460.865 109.063 460.865H112.008C112.552 460.865 112.993 461.306 112.993 461.851C112.993 462.395 112.552 462.836 112.008 462.836Z" fill="#A08BCD"/>
<path d="M17.7672 357.815C17.7672 360.187 15.8464 362.107 13.4755 362.107C11.1052 362.107 9.18387 360.187 9.18387 357.815C9.18387 355.445 11.1052 353.523 13.4755 353.523C15.8464 353.523 17.7672 355.445 17.7672 357.815Z" fill="#A08BCD"/>
<path d="M13.476 350.756C9.58387 350.756 6.4172 353.923 6.4172 357.815C6.4172 361.708 9.58387 364.875 13.476 364.875C17.3688 364.875 20.5349 361.708 20.5349 357.815C20.5349 353.923 17.3688 350.756 13.476 350.756ZM13.476 365.859C9.04067 365.859 5.43173 362.251 5.43173 357.815C5.43173 353.38 9.04067 349.771 13.476 349.771C17.9115 349.771 21.5197 353.38 21.5197 357.815C21.5197 362.251 17.9115 365.859 13.476 365.859Z" fill="#A08BCD"/>
<path d="M280.591 9.99329H272.601C271.94 9.99329 271.404 9.45599 271.404 8.79466C271.404 8.13332 271.94 7.59596 272.601 7.59596H280.591C281.253 7.59596 281.789 8.13332 281.789 8.79466C281.789 9.45599 281.253 9.99329 280.591 9.99329ZM296.571 9.99329H288.58C287.919 9.99329 287.381 9.45599 287.381 8.79466C287.381 8.13332 287.919 7.59596 288.58 7.59596H296.571C297.232 7.59596 297.768 8.13332 297.768 8.79466C297.768 9.45599 297.232 9.99329 296.571 9.99329ZM312.549 9.99329H304.56C303.899 9.99329 303.36 9.45599 303.36 8.79466C303.36 8.13332 303.899 7.59596 304.56 7.59596H312.549C313.211 7.59596 313.747 8.13332 313.747 8.79466C313.747 9.45599 313.211 9.99329 312.549 9.99329ZM328.528 9.99329H320.539C319.877 9.99329 319.34 9.45599 319.34 8.79466C319.34 8.13332 319.877 7.59596 320.539 7.59596H328.528C329.189 7.59596 329.727 8.13332 329.727 8.79466C329.727 9.45599 329.189 9.99329 328.528 9.99329ZM256.695 10.8626C256.157 10.8626 255.669 10.4986 255.533 9.95462C255.373 9.31195 255.763 8.6613 256.407 8.5013C258.811 7.90129 261.299 7.59596 263.804 7.59596H264.612C265.273 7.59596 265.811 8.13332 265.811 8.79466C265.811 9.45599 265.273 9.99329 264.612 9.99329H263.804C261.496 9.99329 259.203 10.2733 256.987 10.8266L256.695 10.8626ZM344.148 12.5413C343.984 12.5413 343.817 12.508 343.657 12.436C341.324 11.3907 338.856 10.6706 336.327 10.296C335.672 10.1986 335.219 9.58929 335.316 8.93463C335.412 8.27997 336.017 7.81465 336.677 7.92532C339.424 8.33066 342.103 9.11334 344.637 10.2493C345.241 10.52 345.512 11.2293 345.241 11.8333C345.041 12.2773 344.605 12.5413 344.148 12.5413ZM242.997 18.6853C242.692 18.6853 242.388 18.5693 242.155 18.3387C241.684 17.8747 241.68 17.116 242.145 16.644C244.1 14.6667 246.309 12.968 248.715 11.5933C249.287 11.264 250.02 11.4653 250.351 12.0387C250.677 12.6133 250.477 13.3453 249.904 13.6747C247.688 14.94 245.652 16.5066 243.849 18.3293C243.615 18.5666 243.305 18.6853 242.997 18.6853ZM356.275 22.6413C355.893 22.6413 355.517 22.4613 355.287 22.1253C353.831 20.0173 352.096 18.1213 350.132 16.484C349.625 16.0613 349.555 15.3053 349.979 14.796C350.404 14.2866 351.157 14.22 351.668 14.6426C353.797 16.4186 355.679 18.476 357.259 20.7613C357.635 21.3053 357.499 22.052 356.955 22.428C356.747 22.572 356.508 22.6413 356.275 22.6413ZM235.341 32.4813L235.064 32.4493C234.419 32.296 234.021 31.6506 234.175 31.0066C234.815 28.3026 235.824 25.7013 237.173 23.2747C237.493 22.696 238.225 22.4867 238.803 22.8107C239.381 23.132 239.589 23.8626 239.268 24.44C238.024 26.6746 237.096 29.0693 236.505 31.5587C236.376 32.1107 235.884 32.4813 235.341 32.4813ZM361.384 37.56C360.753 37.56 360.225 37.0667 360.188 36.4293C360.044 33.8693 359.551 31.348 358.724 28.936C358.511 28.3107 358.844 27.6293 359.469 27.4133C360.089 27.2013 360.779 27.532 360.991 28.16C361.891 30.7773 362.425 33.5146 362.583 36.2933C362.621 36.9547 362.115 37.52 361.455 37.5587L361.384 37.56ZM234.553 48.3973C233.892 48.3973 233.355 47.86 233.355 47.1987V39.2093C233.355 38.548 233.892 38.0106 234.553 38.0106C235.215 38.0106 235.752 38.548 235.752 39.2093V47.1987C235.752 47.86 235.215 48.3973 234.553 48.3973ZM361.436 53.5373C360.775 53.5373 360.239 53 360.239 52.3386V44.3493C360.239 43.688 360.775 43.1507 361.436 43.1507C362.097 43.1507 362.633 43.688 362.633 44.3493V52.3386C362.633 53 362.097 53.5373 361.436 53.5373ZM234.553 64.376C233.892 64.376 233.355 63.8386 233.355 63.1773V55.188C233.355 54.5266 233.892 53.9906 234.553 53.9906C235.215 53.9906 235.752 54.5266 235.752 55.188V63.1773C235.752 63.8386 235.215 64.376 234.553 64.376ZM361.436 69.516C360.775 69.516 360.239 68.98 360.239 68.3173V60.328C360.239 59.6667 360.775 59.1307 361.436 59.1307C362.097 59.1307 362.633 59.6667 362.633 60.328V68.3173C362.633 68.98 362.097 69.516 361.436 69.516ZM234.553 80.3546C233.892 80.3546 233.355 79.8186 233.355 79.1573V71.1667C233.355 70.5053 233.892 69.968 234.553 69.968C235.215 69.968 235.752 70.5053 235.752 71.1667V79.1573C235.752 79.8186 235.215 80.3546 234.553 80.3546ZM361.436 85.4946C360.775 85.4946 360.239 84.9586 360.239 84.2973V76.3066C360.239 75.6453 360.775 75.108 361.436 75.108C362.097 75.108 362.633 75.6453 362.633 76.3066V84.2973C362.633 84.9586 362.097 85.4946 361.436 85.4946ZM234.553 96.3333C233.892 96.3333 233.355 95.7973 233.355 95.1347V87.1453C233.355 86.484 233.892 85.948 234.553 85.948C235.215 85.948 235.752 86.484 235.752 87.1453V95.1347C235.752 95.7973 235.215 96.3333 234.553 96.3333ZM361.436 101.473C360.775 101.473 360.239 100.937 360.239 100.276V92.2866C360.239 91.624 360.775 91.088 361.436 91.088C362.097 91.088 362.633 91.624 362.633 92.2866V100.276C362.633 100.937 362.097 101.473 361.436 101.473ZM234.553 112.313C233.892 112.313 233.355 111.776 233.355 111.115V103.125C233.355 102.464 233.892 101.927 234.553 101.927C235.215 101.927 235.752 102.464 235.752 103.125V111.115C235.752 111.776 235.215 112.313 234.553 112.313ZM361.436 117.453C360.775 117.453 360.239 116.916 360.239 116.255V108.265C360.239 107.604 360.775 107.067 361.436 107.067C362.097 107.067 362.633 107.604 362.633 108.265V116.255C362.633 116.916 362.097 117.453 361.436 117.453ZM234.553 128.292C233.892 128.292 233.355 127.755 233.355 127.093V119.104C233.355 118.441 233.892 117.905 234.553 117.905C235.215 117.905 235.752 118.441 235.752 119.104V127.093C235.752 127.755 235.215 128.292 234.553 128.292ZM361.436 129.877C360.775 129.877 360.239 129.34 360.239 128.679V124.244C360.239 123.583 360.775 123.045 361.436 123.045C362.097 123.045 362.633 123.583 362.633 124.244V128.679C362.633 129.34 362.097 129.877 361.436 129.877ZM234.553 144.271C233.892 144.271 233.355 143.733 233.355 143.072V135.083C233.355 134.421 233.892 133.884 234.553 133.884C235.215 133.884 235.752 134.421 235.752 135.083V143.072C235.752 143.733 235.215 144.271 234.553 144.271ZM234.553 160.249C233.892 160.249 233.355 159.713 233.355 159.051V151.061C233.355 150.4 233.892 149.863 234.553 149.863C235.215 149.863 235.752 150.4 235.752 151.061V159.051C235.752 159.713 235.215 160.249 234.553 160.249ZM234.553 176.228C233.892 176.228 233.355 175.691 233.355 175.029V167.04C233.355 166.379 233.892 165.843 234.553 165.843C235.215 165.843 235.752 166.379 235.752 167.04V175.029C235.752 175.691 235.215 176.228 234.553 176.228ZM234.553 192.207C233.892 192.207 233.355 191.671 233.355 191.009V183.02C233.355 182.357 233.892 181.821 234.553 181.821C235.215 181.821 235.752 182.357 235.752 183.02V191.009C235.752 191.671 235.215 192.207 234.553 192.207ZM234.553 208.187C233.892 208.187 233.355 207.649 233.355 206.988V198.999C233.355 198.336 233.892 197.8 234.553 197.8C235.215 197.8 235.752 198.336 235.752 198.999V206.988C235.752 207.649 235.215 208.187 234.553 208.187ZM234.553 224.165C233.892 224.165 233.355 223.628 233.355 222.967V214.977C233.355 214.316 233.892 213.779 234.553 213.779C235.215 213.779 235.752 214.316 235.752 214.977V222.967C235.752 223.628 235.215 224.165 234.553 224.165Z" fill="#A08BCD"/>
<path d="M297.995 13.2973C300.481 13.2973 302.497 11.2813 302.497 8.79466C302.497 6.308 300.481 4.29199 297.995 4.29199C295.509 4.29199 293.492 6.308 293.492 8.79466C293.492 11.2813 295.509 13.2973 297.995 13.2973Z" fill="#A08BCD"/>
<path d="M297.995 1.3893C293.911 1.3893 290.589 4.71197 290.589 8.79464C290.589 12.8786 293.911 16.2 297.995 16.2C302.077 16.2 305.401 12.8786 305.401 8.79464C305.401 4.71197 302.077 1.3893 297.995 1.3893ZM297.995 17.2333C293.341 17.2333 289.556 13.448 289.556 8.79464C289.556 4.1413 293.341 0.355965 297.995 0.355965C302.647 0.355965 306.433 4.1413 306.433 8.79464C306.433 13.448 302.647 17.2333 297.995 17.2333Z" fill="#A08BCD"/>
<path d="M303.375 86.9226H226.103V73.7133H303.375V86.9226Z" fill="#B7B9B7"/>
<path d="M365.803 68.7413H310.568C306.548 68.7413 302.735 70.0907 300.149 72.428L285.144 83.656H226.032C223.56 83.656 221.557 85.6587 221.557 88.1307V169.948C221.557 172.419 223.56 174.423 226.032 174.423H370.064C372.535 174.423 374.539 172.419 374.539 169.948V90.9V88.1307V78.684C374.539 73.4293 370.628 68.7413 365.803 68.7413Z" fill="#FAB743"/>
<path d="M119.473 392.503L119.009 392.024C113.273 397.584 105.851 400.349 98.428 400.351C90.6984 400.349 82.9833 397.349 77.1921 391.377C71.6312 385.64 68.8661 378.217 68.8656 370.796C68.8661 363.065 71.8661 355.351 77.8396 349.559C83.5751 343.999 90.9979 341.233 98.42 341.232C106.149 341.233 113.865 344.233 119.656 350.207C125.217 355.943 127.981 363.365 127.983 370.787C127.981 378.517 124.983 386.232 119.009 392.024L119.473 392.503L119.937 392.981C126.179 386.929 129.317 378.86 129.316 370.787C129.316 363.036 126.424 355.272 120.613 349.279C114.563 343.037 106.492 339.899 98.42 339.899C90.6688 339.899 82.9036 342.792 76.9115 348.601C70.6697 354.652 67.5312 362.723 67.5323 370.796C67.5312 378.547 70.4245 386.312 76.2349 392.305C82.2855 398.547 90.3557 401.684 98.428 401.684C106.179 401.684 113.945 398.791 119.937 392.981L119.473 392.503ZM137.513 315.981L137.049 315.503L128.856 323.445C128.552 323.741 128.288 324.057 128.053 324.381L128.595 324.772L128.96 324.215C123.444 320.597 117.42 318.06 111.187 316.601L111.035 317.249L111.691 317.373C111.764 316.979 111.82 316.564 111.824 316.127L111.948 304.717V304.641C111.947 300.757 108.813 297.58 104.919 297.536L93.5104 297.412H93.4333C89.5495 297.413 86.3719 300.547 86.3292 304.441L86.2063 315.851L86.2057 315.916C86.2057 316.328 86.2511 316.721 86.3125 317.096L86.9703 316.988L86.8328 316.336C80.7369 317.623 74.8172 319.94 69.3464 323.291L69.6943 323.859L70.2464 323.485C70.0229 323.155 69.7697 322.831 69.4729 322.525H69.4735L61.5312 314.333C60.1407 312.899 58.2817 312.176 56.4281 312.177C54.6484 312.176 52.8604 312.843 51.4839 314.177L43.2921 322.12C41.8573 323.511 41.1349 325.369 41.1355 327.223C41.1349 329.003 41.8011 330.791 43.1364 332.167L51.0787 340.36C51.3751 340.665 51.6912 340.928 52.0131 341.161L52.4041 340.621L51.8464 340.256C48.2303 345.771 45.6917 351.795 44.2333 358.029L44.8823 358.181L45.0047 357.525C44.6115 357.452 44.1969 357.396 43.7599 357.392L32.3161 357.268H32.3521H32.2735C30.4203 357.267 28.6599 357.979 27.3287 359.272L27.3213 359.277L27.2927 359.308L27.7713 359.772L27.3052 359.296C25.9505 360.619 25.1885 362.404 25.1697 364.297L25.0469 375.707L25.7136 375.713V375.047H25.7125H25.0531L25.0459 375.707V375.783C25.0469 379.667 28.1807 382.844 32.0745 382.887L43.4839 383.011H43.4849H43.5401C43.9599 383.011 44.3563 382.963 44.7312 382.899L44.6203 382.243L43.9677 382.38C45.2547 388.477 47.5724 394.397 50.9235 399.871L51.4921 399.521L51.1177 398.971C50.7896 399.193 50.464 399.445 50.1584 399.743L41.9667 407.685C40.5323 409.076 39.8099 410.933 39.8104 412.787C39.8099 414.567 40.476 416.355 41.8115 417.732L49.7531 425.924C51.1437 427.359 53.0027 428.081 54.8563 428.08C56.636 428.081 58.424 427.415 59.8005 426.08L68.0245 418.107L67.9927 418.137C68.2973 417.841 68.5604 417.525 68.7937 417.204L68.2541 416.812L67.8891 417.369C73.4057 420.987 79.4307 423.525 85.6656 424.984L85.8177 424.335L85.1625 424.211C85.0891 424.599 85.0292 425.012 85.0245 425.456L84.9016 436.865L84.9011 436.945C84.9 438.809 85.6208 440.579 86.9287 441.912C88.2521 443.265 90.0364 444.028 91.9297 444.047L103.339 444.169L103.347 443.503H102.68V443.504V444.164L103.34 444.171H103.413C105.331 444.171 107.079 443.404 108.359 442.164C109.672 440.893 110.499 439.112 110.52 437.141L110.644 425.732V425.677C110.644 425.256 110.595 424.86 110.532 424.485L109.875 424.596L110.012 425.248C116.109 423.961 122.031 421.643 127.503 418.292L127.155 417.724L126.604 418.099C126.827 418.427 127.079 418.751 127.375 419.057L135.317 427.249C136.708 428.684 138.567 429.407 140.42 429.405C142.2 429.407 143.988 428.74 145.365 427.404L153.557 419.463C154.992 418.072 155.715 416.215 155.713 414.36C155.715 412.58 155.048 410.792 153.712 409.416L145.771 401.223C145.475 400.917 145.157 400.655 144.836 400.421L144.444 400.961L145.001 401.327C148.619 395.811 151.159 389.785 152.616 383.549L151.967 383.399L151.841 384.053C152.232 384.128 152.647 384.187 153.089 384.191L164.497 384.315H164.577C166.492 384.316 168.24 383.549 169.519 382.309C170.831 381.037 171.659 379.256 171.68 377.287L171.803 365.877L171.804 365.8C171.803 361.916 168.668 358.739 164.775 358.695L153.365 358.573H153.367L153.307 358.572C152.893 358.572 152.497 358.617 152.119 358.679L152.228 359.337L152.88 359.199C151.592 353.104 149.276 347.184 145.925 341.713L145.356 342.061L145.731 342.613C146.06 342.391 146.384 342.137 146.691 341.84L154.883 333.897C156.317 332.508 157.04 330.649 157.039 328.796C157.04 327.016 156.373 325.228 155.037 323.851L147.096 315.66C145.705 314.224 143.847 313.501 141.993 313.503C140.213 313.501 138.425 314.168 137.049 315.503L137.513 315.981L137.977 316.46C139.097 315.375 140.543 314.836 141.993 314.836C143.504 314.836 145.007 315.421 146.139 316.588L154.08 324.779C155.167 325.9 155.704 327.345 155.705 328.796C155.704 330.307 155.12 331.809 153.955 332.94L145.763 340.883C145.523 341.115 145.261 341.32 144.983 341.509L144.455 341.865L144.788 342.409C148.057 347.748 150.319 353.525 151.576 359.475L151.707 360.099L152.336 359.995C152.667 359.94 152.989 359.905 153.307 359.905H153.351V359.907L164.76 360.028C167.919 360.061 170.472 362.648 170.471 365.8L170.469 365.863L170.347 377.272C170.329 378.873 169.66 380.315 168.591 381.352C167.547 382.361 166.133 382.981 164.577 382.981H164.512L153.103 382.857C152.771 382.855 152.437 382.809 152.092 382.744L151.463 382.623L151.317 383.247C149.895 389.333 147.417 395.212 143.887 400.595L143.539 401.127L144.052 401.5C144.325 401.699 144.581 401.912 144.813 402.152L152.755 410.344C153.841 411.464 154.38 412.909 154.38 414.36C154.38 415.872 153.796 417.375 152.629 418.505L144.437 426.447C143.316 427.533 141.871 428.072 140.42 428.072C138.909 428.072 137.407 427.488 136.275 426.321L128.333 418.129V418.131C128.101 417.889 127.896 417.628 127.705 417.349L127.348 416.824L126.807 417.155C121.465 420.425 115.688 422.687 109.737 423.944L109.112 424.076L109.217 424.707C109.273 425.04 109.311 425.36 109.311 425.677V425.719L109.187 437.127C109.169 438.729 108.5 440.169 107.431 441.205C106.387 442.217 104.972 442.837 103.413 442.837H103.352L103.347 443.504H104.013V443.503V442.843L91.9437 442.713C90.3979 442.696 88.964 442.083 87.8812 440.979C86.8145 439.888 86.2355 438.467 86.2344 436.945L86.2349 436.88L86.3579 425.471C86.3609 425.139 86.4068 424.805 86.4724 424.459L86.5917 423.831L85.9693 423.685C79.8828 422.261 74.0036 419.784 68.6197 416.255L68.088 415.907L67.7145 416.421C67.5172 416.693 67.3036 416.948 67.064 417.18L58.8724 425.123C57.7521 426.208 56.3068 426.747 54.8563 426.747C53.3453 426.747 51.8417 426.163 50.7099 424.996L42.7688 416.804C41.6828 415.683 41.1443 414.237 41.1437 412.787C41.1448 411.276 41.7287 409.773 42.8948 408.643L51.0869 400.7H51.0875C51.3255 400.468 51.5875 400.263 51.8661 400.073L52.3927 399.716L52.0604 399.173C48.7901 393.833 46.5287 388.056 45.2724 382.104L45.1401 381.477L44.5088 381.585C44.1787 381.641 43.8584 381.677 43.5401 381.677H43.4979L32.0891 381.553C28.9292 381.521 26.3776 378.935 26.3792 375.783V375.72L25.7125 375.713V376.38H25.7136H26.3729L26.5031 364.312C26.5203 362.765 27.1323 361.331 28.2375 360.248L28.2443 360.241L28.2708 360.215L27.7927 359.749L28.2568 360.228C29.3448 359.173 30.7599 358.601 32.2735 358.601H32.336L43.7459 358.725H43.7464C44.0771 358.728 44.414 358.772 44.7604 358.836L45.3864 358.953L45.5317 358.332C46.9552 352.247 49.4323 346.369 52.9615 340.987L53.3104 340.455L52.7948 340.081C52.5229 339.884 52.2677 339.671 52.0355 339.431L44.0937 331.239C43.0079 330.119 42.4693 328.673 42.4688 327.223C42.4693 325.712 43.0536 324.208 44.2203 323.077L52.412 315.135C53.5323 314.049 54.9776 313.511 56.4281 313.511C57.9396 313.511 59.4421 314.095 60.574 315.263L68.5156 323.453H68.5161C68.7479 323.692 68.9531 323.953 69.1421 324.233L69.4995 324.76L70.0427 324.428C75.3817 321.159 81.1584 318.896 87.1084 317.64L87.7317 317.509L87.6281 316.88C87.574 316.551 87.5391 316.229 87.5391 315.916L87.5396 315.865L87.6625 304.456C87.6948 301.296 90.2823 298.744 93.4333 298.745H93.4953H93.4959L104.904 298.869C108.064 298.903 110.616 301.489 110.615 304.641V304.704L110.491 316.112C110.488 316.444 110.445 316.781 110.38 317.127L110.261 317.753L110.883 317.899C116.968 319.323 122.845 321.8 128.228 325.329L128.761 325.679L129.135 325.163C129.331 324.891 129.545 324.636 129.785 324.403L137.977 316.46L137.513 315.981Z" fill="#212C5A"/>
<path d="M354.803 409.504H232.175V468.288H354.803V409.504Z" fill="#E31293"/>
<path d="M497.196 131.967V399.756C497.196 408.356 490.224 415.329 481.612 415.329H105.365C96.764 415.329 89.7802 408.356 89.7802 399.756V131.967C89.7802 123.365 96.764 116.381 105.365 116.381H481.612C490.224 116.381 497.196 123.365 497.196 131.967Z" fill="#EE1A98"/>
<path d="M292.825 404.495C288.407 404.495 284.825 400.912 284.825 396.495C284.825 392.076 288.407 388.495 292.825 388.495C297.243 388.495 300.825 392.076 300.825 396.495C300.825 400.912 297.243 404.495 292.825 404.495Z" fill="#F472BF"/>
<path d="M492.301 378.849V134.967C492.301 127.575 486.517 121.581 479.379 121.581H107.599C100.461 121.581 94.6747 127.575 94.6747 134.967V378.849H492.301Z" fill="#DAC9E9"/>
<path d="M378.931 474.623H208.047V474.213C208.047 467.442 213.535 461.954 220.305 461.954H366.672C373.441 461.954 378.931 467.442 378.931 474.213V474.623Z" fill="#EE1A98"/>
<path d="M126.735 119.08C126.735 107.276 117.836 97.5626 106.384 96.2493C106.472 95.4786 106.528 94.6973 106.528 93.9013C106.528 82.584 97.3547 73.4106 86.0375 73.4106C83.0057 73.4106 80.1375 74.0866 77.5484 75.268C72.0921 66.7626 62.5609 61.1226 51.7068 61.1226C34.7579 61.1226 21.0183 74.8626 21.0183 91.8119C21.0183 93.3039 21.1303 94.7706 21.336 96.2053C9.73745 97.3786 0.685455 107.172 0.685455 119.08C0.685455 131.779 10.9797 142.073 23.6781 142.073H104.881V142.015C117.047 141.416 126.735 131.393 126.735 119.08Z" fill="#A08BCD"/>
<path d="M78.4364 159.619V123.893H48.9828V159.619H39.776L63.7093 182.041L87.6437 159.619H78.4364Z" fill="#FAB743"/>
<path d="M403.804 135.972H331.489C324.801 135.972 319.381 130.552 319.381 123.864V99.8146C319.381 93.128 324.801 87.7066 331.489 87.7066H403.804C410.492 87.7066 415.912 93.128 415.912 99.8146V123.864C415.912 130.552 410.492 135.972 403.804 135.972Z" fill="#4746A4"/>
<path d="M133.86 483.299H61.5448C54.8579 483.299 49.4364 477.879 49.4364 471.191V447.141C49.4364 440.455 54.8579 435.033 61.5448 435.033H133.86C140.548 435.033 145.968 440.455 145.968 447.141V471.191C145.968 477.879 140.548 483.299 133.86 483.299Z" fill="#4746A4"/>
<path d="M168.635 279.115H96.3187C89.6317 279.115 84.2104 273.693 84.2104 267.007V242.956C84.2104 236.269 89.6317 230.848 96.3187 230.848H168.635C175.323 230.848 180.743 236.269 180.743 242.956V267.007C180.743 273.693 175.323 279.115 168.635 279.115Z" fill="#4746A4"/>
<path d="M423.449 433.651H420.004C419.433 433.651 418.971 433.187 418.971 432.617C418.971 432.047 419.433 431.583 420.004 431.583H423.449C424.019 431.583 424.481 432.047 424.481 432.617C424.481 433.187 424.019 433.651 423.449 433.651Z" fill="#A08BCD"/>
<path d="M534.779 319.139C534.207 319.139 533.744 318.677 533.744 318.107V311.216C533.744 310.645 534.207 310.183 534.779 310.183C535.349 310.183 535.811 310.645 535.811 311.216V318.107C535.811 318.677 535.349 319.139 534.779 319.139ZM534.779 332.919C534.207 332.919 533.744 332.457 533.744 331.887V324.996C533.744 324.425 534.207 323.964 534.779 323.964C535.349 323.964 535.811 324.425 535.811 324.996V331.887C535.811 332.457 535.349 332.919 534.779 332.919ZM534.779 346.7C534.207 346.7 533.744 346.239 533.744 345.668V338.777C533.744 338.207 534.207 337.743 534.779 337.743C535.349 337.743 535.811 338.207 535.811 338.777V345.668C535.811 346.239 535.349 346.7 534.779 346.7ZM534.779 360.48C534.207 360.48 533.744 360.019 533.744 359.448V352.557C533.744 351.987 534.207 351.523 534.779 351.523C535.349 351.523 535.811 351.987 535.811 352.557V359.448C535.811 360.019 535.349 360.48 534.779 360.48ZM534.779 374.261C534.207 374.261 533.744 373.797 533.744 373.228V366.339C533.744 365.768 534.207 365.304 534.779 365.304C535.349 365.304 535.811 365.768 535.811 366.339V373.228C535.811 373.797 535.349 374.261 534.779 374.261ZM534.779 388.041C534.207 388.041 533.744 387.579 533.744 387.008V380.119C533.744 379.548 534.207 379.084 534.779 379.084C535.349 379.084 535.811 379.548 535.811 380.119V387.008C535.811 387.579 535.349 388.041 534.779 388.041ZM534.779 401.823C534.207 401.823 533.744 401.359 533.744 400.789V393.899C533.744 393.328 534.207 392.865 534.779 392.865C535.349 392.865 535.811 393.328 535.811 393.899V400.789C535.811 401.359 535.349 401.823 534.779 401.823ZM532.871 415.364C532.747 415.364 532.621 415.343 532.499 415.296C531.967 415.089 531.701 414.491 531.907 413.96C532.704 411.896 533.249 409.736 533.524 407.539C533.596 406.972 534.095 406.569 534.68 406.643C535.245 406.715 535.647 407.231 535.575 407.797C535.279 410.16 534.693 412.483 533.835 414.703C533.677 415.113 533.287 415.364 532.871 415.364ZM525.06 426.548C524.772 426.548 524.487 426.429 524.283 426.196C523.907 425.768 523.948 425.115 524.377 424.739C526.041 423.276 527.528 421.615 528.795 419.801C529.121 419.335 529.764 419.219 530.235 419.547C530.701 419.873 530.815 420.519 530.488 420.985C529.127 422.933 527.529 424.719 525.74 426.292C525.545 426.464 525.301 426.548 525.06 426.548ZM512.955 432.849C512.489 432.849 512.067 432.532 511.952 432.059C511.817 431.504 512.159 430.947 512.712 430.811C514.864 430.291 516.951 429.508 518.912 428.484C519.42 428.219 520.043 428.416 520.307 428.921C520.571 429.428 520.373 430.052 519.868 430.316C517.756 431.417 515.515 432.26 513.199 432.82L512.955 432.849ZM437.229 433.651H430.339C429.768 433.651 429.305 433.187 429.305 432.617C429.305 432.047 429.768 431.583 430.339 431.583H437.229C437.799 431.583 438.263 432.047 438.263 432.617C438.263 433.187 437.799 433.651 437.229 433.651ZM451.009 433.651H444.12C443.549 433.651 443.087 433.187 443.087 432.617C443.087 432.047 443.549 431.583 444.12 431.583H451.009C451.579 431.583 452.043 432.047 452.043 432.617C452.043 433.187 451.579 433.651 451.009 433.651ZM464.791 433.651H457.9C457.329 433.651 456.865 433.187 456.865 432.617C456.865 432.047 457.329 431.583 457.9 431.583H464.791C465.36 431.583 465.823 432.047 465.823 432.617C465.823 433.187 465.36 433.651 464.791 433.651ZM478.572 433.651H471.681C471.111 433.651 470.647 433.187 470.647 432.617C470.647 432.047 471.111 431.583 471.681 431.583H478.572C479.141 431.583 479.604 432.047 479.604 432.617C479.604 433.187 479.141 433.651 478.572 433.651ZM492.351 433.651H485.461C484.891 433.651 484.428 433.187 484.428 432.617C484.428 432.047 484.891 431.583 485.461 431.583H492.351C492.921 431.583 493.384 432.047 493.384 432.617C493.384 433.187 492.921 433.651 492.351 433.651ZM506.131 433.651H499.24C498.671 433.651 498.208 433.187 498.208 432.617C498.208 432.047 498.671 431.583 499.24 431.583H506.131C506.701 431.583 507.165 432.047 507.165 432.617C507.165 433.187 506.701 433.651 506.131 433.651Z" fill="#A08BCD"/>
<path d="M534.779 305.328C534.207 305.328 533.744 304.865 533.744 304.296V301.884H532.877C532.307 301.884 531.845 301.42 531.845 300.851C531.845 300.28 532.307 299.816 532.877 299.816H534.779C535.349 299.816 535.811 300.28 535.811 300.851V304.296C535.811 304.865 535.349 305.328 534.779 305.328Z" fill="#A08BCD"/>
<path d="M502.707 196.488H412.3C406.865 196.488 402.459 200.893 402.459 206.328V394.207C402.459 399.641 406.865 404.047 412.3 404.047H502.707C508.14 404.047 512.547 399.641 512.547 394.207V206.328C512.547 200.893 508.14 196.488 502.707 196.488Z" fill="#A08BCD"/>
<path d="M477.719 207.315H427.989C427.127 207.315 426.427 206.615 426.427 205.751V205.549C426.427 204.687 427.127 203.987 427.989 203.987H477.719C478.581 203.987 479.281 204.687 479.281 205.549V205.751C479.281 206.615 478.581 207.315 477.719 207.315Z" fill="#212C5A"/>
<path d="M488.58 205.651C488.58 206.569 487.835 207.315 486.916 207.315C485.997 207.315 485.252 206.569 485.252 205.651C485.252 204.732 485.997 203.987 486.916 203.987C487.835 203.987 488.58 204.732 488.58 205.651Z" fill="#212C5A"/>
<path d="M506.487 275.535H408.52V215.336H506.487V275.535Z" fill="white"/>
<path d="M476.088 240.492L468.907 249.083L450.321 226.851L419.247 264.021H456.419H481.395H495.759L476.088 240.492Z" fill="#FAB743"/>
<path d="M454.772 382.4H408.52V355.272H454.772V382.4Z" fill="white"/>
<path d="M440.42 365.813L437.029 369.871L428.255 359.373L413.584 376.923H431.133H442.925H449.708L440.42 365.813Z" fill="#FAB743"/>
<path d="M408.52 293.619H454.772V291.019H408.52V293.619Z" fill="#5C58B1"/>
<path d="M408.52 288.173H454.772V285.573H408.52V288.173Z" fill="#5C58B1"/>
<path d="M408.52 298.937H437.765V296.339H408.52V298.937Z" fill="#5C58B1"/>
<path d="M439.845 298.937H454.772V296.339H439.845V298.937Z" fill="#5C58B1"/>
<path d="M408.52 304.251H449.44V301.651H408.52V304.251Z" fill="#5C58B1"/>
<path d="M408.52 309.709H422.734V307.11H408.52V309.709Z" fill="#5C58B1"/>
<path d="M425.184 309.709H435.42V307.11H425.184V309.709Z" fill="#5C58B1"/>
<path d="M460.235 330.011H506.486V327.411H460.235V330.011Z" fill="#5C58B1"/>
<path d="M460.235 324.565H506.486V321.967H460.235V324.565Z" fill="#5C58B1"/>
<path d="M460.235 335.329H489.48V332.73H460.235V335.329Z" fill="#5C58B1"/>
<path d="M491.559 335.329H506.486V332.73H491.559V335.329Z" fill="#5C58B1"/>
<path d="M460.235 340.643H501.154V338.044H460.235V340.643Z" fill="#5C58B1"/>
<path d="M460.235 346.101H474.447V343.503H460.235V346.101Z" fill="#5C58B1"/>
<path d="M476.899 346.101H487.133V343.503H476.899V346.101Z" fill="#5C58B1"/>
<path d="M460.235 293.619H506.486V291.019H460.235V293.619Z" fill="#5C58B1"/>
<path d="M460.235 288.173H506.486V285.573H460.235V288.173Z" fill="#5C58B1"/>
<path d="M460.235 298.937H489.48V296.339H460.235V298.937Z" fill="#5C58B1"/>
<path d="M491.559 298.937H506.486V296.339H491.559V298.937Z" fill="#5C58B1"/>
<path d="M460.235 304.251H506.486V301.651H460.235V304.251Z" fill="#5C58B1"/>
<path d="M460.235 309.709H474.447V307.11H460.235V309.709Z" fill="#5C58B1"/>
<path d="M476.899 309.709H506.486V307.11H476.899V309.709Z" fill="#5C58B1"/>
<path d="M408.52 330.011H454.772V327.411H408.52V330.011Z" fill="#5C58B1"/>
<path d="M408.52 324.565H454.772V321.967H408.52V324.565Z" fill="#5C58B1"/>
<path d="M408.52 335.329H454.772V332.73H408.52V335.329Z" fill="#5C58B1"/>
<path d="M408.52 340.643H454.772V338.044H408.52V340.643Z" fill="#5C58B1"/>
<path d="M408.52 346.101H454.772V343.503H408.52V346.101Z" fill="#5C58B1"/>
<path d="M460.235 364.204H506.486V361.606H460.235V364.204Z" fill="#5C58B1"/>
<path d="M460.235 358.759H506.486V356.16H460.235V358.759Z" fill="#5C58B1"/>
<path d="M477.241 369.523H506.487V366.924H477.241V369.523Z" fill="#5C58B1"/>
<path d="M460.235 369.523H475.161V366.924H460.235V369.523Z" fill="#5C58B1"/>
<path d="M460.235 374.837H495.748V372.239H460.235V374.837Z" fill="#5C58B1"/>
<path d="M498.216 374.837H506.486V372.239H498.216V374.837Z" fill="#5C58B1"/>
<path d="M472.368 380.296H506.486V377.696H472.368V380.296Z" fill="#5C58B1"/>
<path d="M460.235 380.296H470.469V377.696H460.235V380.296Z" fill="#5C58B1"/>
<path d="M424.361 452.313H352.047C345.359 452.313 339.939 446.892 339.939 440.205V416.155C339.939 409.468 345.359 404.047 352.047 404.047H424.361C431.049 404.047 436.471 409.468 436.471 416.155V440.205C436.471 446.892 431.049 452.313 424.361 452.313Z" fill="#4746A4"/>
<path d="M538.503 372.261C538.503 374.748 536.487 376.764 534 376.764C531.513 376.764 529.497 374.748 529.497 372.261C529.497 369.775 531.513 367.759 534 367.759C536.487 367.759 538.503 369.775 538.503 372.261Z" fill="#A08BCD"/>
<path d="M533.999 364.855C529.915 364.855 526.593 368.177 526.593 372.261C526.593 376.345 529.915 379.667 533.999 379.667C538.083 379.667 541.405 376.345 541.405 372.261C541.405 368.177 538.083 364.855 533.999 364.855ZM533.999 380.7C529.347 380.7 525.56 376.915 525.56 372.261C525.56 367.608 529.347 363.821 533.999 363.821C538.652 363.821 542.439 367.608 542.439 372.261C542.439 376.915 538.652 380.7 533.999 380.7Z" fill="#A08BCD"/>
<path d="M572.857 306.193H500.541C493.853 306.193 488.433 300.772 488.433 294.085V270.035C488.433 263.349 493.853 257.927 500.541 257.927H572.857C579.544 257.927 584.965 263.349 584.965 270.035V294.085C584.965 300.772 579.544 306.193 572.857 306.193Z" fill="#4746A4"/>
<path d="M313.236 317.785H282.86V315.029H313.236V317.785Z" fill="#212C5A"/>
<path d="M391.369 317.785H321.025V315.029H391.369V317.785Z" fill="#212C5A"/>
<path d="M355.317 338.743C343.241 338.743 331.14 338.728 319.095 338.699L319.101 335.944C343.188 336.001 367.501 336.001 391.365 335.944L391.372 338.699C379.439 338.728 367.392 338.743 355.317 338.743Z" fill="#212C5A"/>
<path d="M391.369 328.243H308.029V325.487H391.369V328.243Z" fill="#212C5A"/>
<path d="M391.369 349.2H303.496V346.444H391.369V349.2Z" fill="#212C5A"/>
<path d="M391.369 359.657H291.308V356.903H391.369V359.657Z" fill="#212C5A"/>
<path d="M165.741 160.207H118.696V157.451H165.741V160.207Z" fill="#A08BCD"/>
<path d="M275.088 160.207H226.539V157.451H275.088V160.207Z" fill="#A08BCD"/>
<path d="M275.088 170.663H241.411V167.908H275.088V170.663Z" fill="#FAB743"/>
<path d="M275.088 191.621H227.557V188.865H275.088V191.621Z" fill="#FAB743"/>
<path d="M275.088 202.079H218.248V199.323H275.088V202.079Z" fill="#FAB743"/>
<path d="M275.088 214.304H201.975V211.549H275.088V214.304Z" fill="#FAB743"/>
<path d="M220.415 160.207H173.368V157.451H220.415V160.207Z" fill="#FAB743"/>
<path d="M237.108 181.164C229.921 181.164 222.709 181.155 208.285 181.133L198.908 181.121L198.911 178.365L208.289 178.379C237.132 178.419 237.135 178.419 265.773 178.379L275.088 178.365V181.121L265.777 181.133C251.456 181.155 244.295 181.164 237.108 181.164Z" fill="#FAB743"/>
<path d="M154.748 181.164C142.673 181.164 130.627 181.151 118.692 181.121L118.699 178.365C142.563 178.423 166.876 178.423 190.964 178.365L190.969 181.121C178.924 181.151 166.821 181.164 154.748 181.164Z" fill="#A08BCD"/>
<path d="M234.729 170.663H118.696V167.908H234.729V170.663Z" fill="#A08BCD"/>
<path d="M195.533 214.304H118.696V211.549H195.533V214.304Z" fill="#A08BCD"/>
<path d="M221.557 191.621H118.696V188.865H221.557V191.621Z" fill="#A08BCD"/>
<path d="M211.917 202.079H118.696V199.323H211.917V202.079Z" fill="#A08BCD"/>
<path d="M110.748 158.828C110.748 159.879 109.897 160.729 108.848 160.729C107.797 160.729 106.947 159.879 106.947 158.828C106.947 157.779 107.797 156.928 108.848 156.928C109.897 156.928 110.748 157.779 110.748 158.828Z" fill="#EE1A98"/>
<path d="M110.748 169.287C110.748 170.336 109.897 171.187 108.848 171.187C107.797 171.187 106.947 170.336 106.947 169.287C106.947 168.237 107.797 167.385 108.848 167.385C109.897 167.385 110.748 168.237 110.748 169.287Z" fill="#EE1A98"/>
<path d="M110.748 179.743C110.748 180.793 109.897 181.644 108.848 181.644C107.797 181.644 106.947 180.793 106.947 179.743C106.947 178.693 107.797 177.843 108.848 177.843C109.897 177.843 110.748 178.693 110.748 179.743Z" fill="#EE1A98"/>
<path d="M110.748 190.2C110.748 191.249 109.897 192.101 108.848 192.101C107.797 192.101 106.947 191.249 106.947 190.2C106.947 189.151 107.797 188.3 108.848 188.3C109.897 188.3 110.748 189.151 110.748 190.2Z" fill="#EE1A98"/>
<path d="M110.748 200.701C110.748 201.751 109.897 202.601 108.848 202.601C107.797 202.601 106.947 201.751 106.947 200.701C106.947 199.652 107.797 198.8 108.848 198.8C109.897 198.8 110.748 199.652 110.748 200.701Z" fill="#EE1A98"/>
<path d="M110.748 212.927C110.748 213.976 109.897 214.827 108.848 214.827C107.797 214.827 106.947 213.976 106.947 212.927C106.947 211.877 107.797 211.027 108.848 211.027C109.897 211.027 110.748 211.877 110.748 212.927Z" fill="#EE1A98"/>
<path d="M287.628 219.157C287.248 219.157 286.94 218.849 286.94 218.468V157.281C286.94 156.9 287.248 156.592 287.628 156.592C288.009 156.592 288.317 156.9 288.317 157.281V218.468C288.317 218.849 288.009 219.157 287.628 219.157Z" fill="#EE1A98"/>
<path d="M156.045 307.853H151.811C151.42 307.853 151.104 307.537 151.104 307.147C151.104 306.756 151.42 306.441 151.811 306.441H156.045C156.436 306.441 156.752 306.756 156.752 307.147C156.752 307.537 156.436 307.853 156.045 307.853ZM164.517 307.853H160.281C159.891 307.853 159.575 307.537 159.575 307.147C159.575 306.756 159.891 306.441 160.281 306.441H164.517C164.907 306.441 165.223 306.756 165.223 307.147C165.223 307.537 164.907 307.853 164.517 307.853ZM172.988 307.853H168.752C168.361 307.853 168.045 307.537 168.045 307.147C168.045 306.756 168.361 306.441 168.752 306.441H172.988C173.377 306.441 173.693 306.756 173.693 307.147C173.693 307.537 173.377 307.853 172.988 307.853ZM146.703 313.352C146.312 313.352 145.996 313.035 145.996 312.645V312.131C145.996 310.692 146.533 309.321 147.508 308.268C147.772 307.983 148.217 307.964 148.505 308.229C148.792 308.493 148.809 308.94 148.545 309.227C147.812 310.019 147.408 311.049 147.408 312.131V312.645C147.408 313.035 147.093 313.352 146.703 313.352ZM146.703 321.821C146.312 321.821 145.996 321.507 145.996 321.116V316.88C145.996 316.491 146.312 316.175 146.703 316.175C147.093 316.175 147.408 316.491 147.408 316.88V321.116C147.408 321.507 147.093 321.821 146.703 321.821ZM146.703 330.293C146.312 330.293 145.996 329.976 145.996 329.587V325.352C145.996 324.961 146.312 324.645 146.703 324.645C147.093 324.645 147.408 324.961 147.408 325.352V329.587C147.408 329.976 147.093 330.293 146.703 330.293ZM146.703 338.763C146.312 338.763 145.996 338.448 145.996 338.057V333.821C145.996 333.432 146.312 333.116 146.703 333.116C147.093 333.116 147.408 333.432 147.408 333.821V338.057C147.408 338.448 147.093 338.763 146.703 338.763ZM146.816 347.225C146.491 347.225 146.199 347 146.128 346.669C146.041 346.269 145.996 345.86 145.996 345.455V342.293C145.996 341.903 146.312 341.587 146.703 341.587C147.093 341.587 147.408 341.903 147.408 342.293V345.455C147.408 345.76 147.441 346.069 147.507 346.369C147.589 346.751 147.348 347.127 146.967 347.209L146.816 347.225ZM153.4 351.143H151.685C150.721 351.143 149.768 350.897 148.929 350.431C148.587 350.243 148.464 349.812 148.653 349.471C148.844 349.129 149.277 349.009 149.613 349.196C150.243 349.547 150.96 349.731 151.685 349.731H153.4C153.791 349.731 154.105 350.047 154.105 350.436C154.105 350.827 153.791 351.143 153.4 351.143ZM161.871 351.143H157.636C157.245 351.143 156.929 350.827 156.929 350.436C156.929 350.047 157.245 349.731 157.636 349.731H161.871C162.261 349.731 162.576 350.047 162.576 350.436C162.576 350.827 162.261 351.143 161.871 351.143ZM170.341 351.143H166.107C165.716 351.143 165.4 350.827 165.4 350.436C165.4 350.047 165.716 349.731 166.107 349.731H170.341C170.732 349.731 171.047 350.047 171.047 350.436C171.047 350.827 170.732 351.143 170.341 351.143Z" fill="#212C5A"/>
<path d="M185.705 335.635H163.032V332.812H185.705V335.635Z" fill="#212C5A"/>
<path d="M228.268 335.635H191.64V332.812H228.268V335.635Z" fill="#212C5A"/>
<path d="M228.268 359.657H205.596V356.835H228.268V359.657Z" fill="#212C5A"/>
<path d="M199.663 359.657H163.032V356.835H199.663V359.657Z" fill="#212C5A"/>
<path d="M202.911 343.817H163.032V340.993H202.911V343.817Z" fill="#212C5A"/>
<path d="M228.268 343.817H208.844V340.993H228.268V343.817Z" fill="#212C5A"/>
<path d="M195.849 351.849H163.032V349.024H195.849V351.849Z" fill="#212C5A"/>
<path d="M228.268 351.849H206V349.024H228.268V351.849Z" fill="#212C5A"/>
<path d="M174.901 298.699H163.032V320.799H174.901V298.699Z" fill="#FAB743"/>
<path d="M193.523 290.309H181.655V320.799H193.523V290.309Z" fill="#EE1A98"/>
<path d="M211.531 272.915H199.661V320.799H211.531V272.915Z" fill="#4746A4"/>
<path d="M203.245 351.849H198.985V349.024H203.245V351.849Z" fill="#212C5A"/>
<path d="M390.3 297.029H301.449V197.897H390.3V297.029Z" fill="#A08BCD"/>
<path d="M370.577 217.583H308.624V215.516H370.577V217.583Z" fill="white"/>
<path d="M339.533 232.625C328.893 232.625 318.275 232.615 308.621 232.591L308.627 230.524C327.931 230.572 351.091 230.572 370.575 230.524L370.58 232.591C360.837 232.615 350.175 232.625 339.533 232.625Z" fill="white"/>
<path d="M370.577 225.087H308.624V223.02H370.577V225.087Z" fill="white"/>
<path d="M353.789 240.129H308.624V238.063H353.789V240.129Z" fill="white"/>
<path d="M370.577 290.643H308.624V288.576H370.577V290.643Z" fill="white"/>
<path d="M370.575 275.635C351.089 275.588 327.929 275.588 308.627 275.635L308.621 273.569C327.929 273.523 351.092 273.523 370.58 273.569L370.575 275.635Z" fill="white"/>
<path d="M370.577 283.139H308.624V281.073H370.577V283.139Z" fill="white"/>
<path d="M353.789 268.097H308.624V266.029H353.789V268.097Z" fill="white"/>
<path d="M301.449 297.029H390.3V197.865H301.449V297.029ZM391.68 298.408H300.072V196.488H391.68V298.408Z" fill="#4746A4"/>
<path d="M390.989 197.176H300.759V209.052H390.989V197.176Z" fill="#4746A4"/>
<path d="M365.223 260.751C364.979 260.751 364.736 260.665 364.539 260.492L357.595 254.356C357.373 254.161 357.247 253.879 357.247 253.583C357.247 253.287 357.373 253.005 357.595 252.808L364.539 246.673C364.965 246.297 365.619 246.335 365.999 246.764C366.375 247.191 366.335 247.844 365.907 248.223L359.841 253.583L365.907 258.944C366.335 259.321 366.375 259.973 365.999 260.403C365.795 260.633 365.509 260.751 365.223 260.751Z" fill="white"/>
<path d="M375.933 260.751C375.648 260.751 375.363 260.633 375.159 260.403C374.783 259.973 374.823 259.321 375.248 258.944L381.316 253.583L375.248 248.223C374.823 247.844 374.783 247.191 375.159 246.764C375.536 246.336 376.188 246.297 376.619 246.673L383.561 252.808C383.784 253.005 383.909 253.287 383.909 253.583C383.909 253.879 383.784 254.161 383.561 254.356L376.619 260.492C376.42 260.665 376.177 260.751 375.933 260.751Z" fill="white"/>
<path d="M309.305 203.115L311.712 200.707C311.94 200.479 311.94 200.111 311.712 199.883C311.485 199.656 311.116 199.656 310.889 199.883L308.481 202.291L306.073 199.883C305.847 199.656 305.477 199.656 305.249 199.883C305.021 200.111 305.021 200.479 305.249 200.707L307.657 203.115L305.249 205.521C305.021 205.749 305.021 206.117 305.249 206.345C305.364 206.46 305.513 206.516 305.663 206.516C305.811 206.516 305.961 206.46 306.073 206.345L308.481 203.937L310.889 206.345C311.003 206.46 311.152 206.516 311.3 206.516C311.451 206.516 311.599 206.46 311.712 206.345C311.94 206.117 311.94 205.749 311.712 205.521L309.305 203.115Z" fill="white"/>
<path d="M319.628 200.801C318.353 200.801 317.317 201.839 317.317 203.115C317.317 204.389 318.353 205.427 319.628 205.427C320.905 205.427 321.941 204.389 321.941 203.115C321.941 201.839 320.905 200.801 319.628 200.801ZM319.628 206.516C317.753 206.516 316.228 204.991 316.228 203.115C316.228 201.239 317.753 199.712 319.628 199.712C321.505 199.712 323.031 201.239 323.031 203.115C323.031 204.991 321.505 206.516 319.628 206.516Z" fill="white"/>
<path d="M332.791 206.516H327.245C326.924 206.516 326.664 206.255 326.664 205.933C326.664 205.612 326.924 205.351 327.245 205.351H332.791C333.113 205.351 333.373 205.612 333.373 205.933C333.373 206.255 333.113 206.516 332.791 206.516Z" fill="white"/>
<path d="M235.913 108.973C224.187 112.683 211.629 106.16 207.92 94.4346C204.211 82.7066 210.733 70.1493 222.46 66.4386C234.187 62.7306 246.744 69.2533 250.455 80.9799C254.163 92.7066 247.64 105.265 235.913 108.973ZM273.055 64.4373L265.031 66.9746C264.764 67.0586 264.512 67.1693 264.271 67.2946C261.855 63.1386 258.756 59.5213 255.167 56.5399C255.335 56.3186 255.491 56.0866 255.621 55.8346L259.465 48.3479C260.66 46.0186 259.739 43.1493 257.409 41.9533L249.921 38.1093C247.593 36.9133 244.724 37.8346 243.528 40.1653L239.684 47.6519C239.555 47.9039 239.457 48.1653 239.376 48.4293C234.983 47.2826 230.369 46.864 225.711 47.2653C225.675 46.996 225.62 46.728 225.536 46.4613L222.997 38.436C222.208 35.9386 219.535 34.5506 217.037 35.3399L209.013 37.8786C206.516 38.6679 205.127 41.3426 205.916 43.8399L208.455 51.864C208.54 52.1306 208.649 52.3813 208.775 52.6226C204.62 55.0386 201.003 58.1373 198.02 61.7266C197.799 61.5586 197.567 61.4026 197.315 61.2733L189.828 57.4293C188.707 56.8533 187.429 56.7453 186.227 57.1253L186.205 57.132C184.997 57.5213 184.013 58.3559 183.435 59.4853L179.589 66.9719C178.393 69.3013 179.316 72.1693 181.645 73.3666L189.132 77.2106C189.385 77.3399 189.648 77.4359 189.911 77.5159C188.763 81.9093 188.344 86.5239 188.745 91.1839C188.477 91.2186 188.208 91.2733 187.941 91.3573L179.917 93.896C177.42 94.6866 176.031 97.36 176.821 99.8573L179.359 107.881C180.149 110.379 182.823 111.767 185.32 110.977L193.344 108.439C193.611 108.355 193.863 108.244 194.103 108.12C196.52 112.275 199.62 115.893 203.209 118.875C203.043 119.095 202.884 119.325 202.753 119.579L198.909 127.065C198.329 128.193 198.224 129.481 198.613 130.688C199.001 131.896 199.837 132.881 200.965 133.46L208.452 137.304C209.609 137.899 210.9 137.969 212.052 137.605C213.219 137.236 214.244 136.42 214.847 135.248L218.691 127.761C218.821 127.508 218.915 127.245 218.996 126.983C223.389 128.131 228.004 128.548 232.664 128.148C232.7 128.416 232.755 128.685 232.839 128.952L235.377 136.977C236.167 139.473 238.84 140.863 241.337 140.073L249.361 137.535C251.859 136.744 253.247 134.072 252.457 131.575L249.92 123.549C249.835 123.283 249.725 123.031 249.6 122.791C253.755 120.373 257.373 117.273 260.355 113.684C260.575 113.852 260.805 114.009 261.059 114.14L268.545 117.985C269.704 118.579 270.995 118.651 272.147 118.285C273.313 117.916 274.339 117.101 274.94 115.929L278.785 108.441C279.981 106.112 279.059 103.243 276.729 102.048L269.241 98.2039C268.991 98.0746 268.729 97.976 268.464 97.8946C269.611 93.5013 270.029 88.888 269.628 84.2306C269.897 84.1946 270.165 84.1399 270.433 84.0546L278.457 81.5173C280.955 80.7279 282.343 78.0533 281.553 75.556L279.016 67.532C278.225 65.0346 275.552 63.6466 273.055 64.4373Z" fill="#212C5A"/>
<path d="M269.347 285.691C266.496 292.672 258.499 296.032 251.519 293.183C244.539 290.332 241.179 282.335 244.028 275.353C246.879 268.373 254.876 265.015 261.856 267.864C268.836 270.715 272.196 278.712 269.347 285.691ZM262.923 250.728L260.972 255.504C260.907 255.663 260.86 255.825 260.825 255.987C257.92 255.497 255 255.539 252.188 256.061C252.149 255.895 252.101 255.731 252.033 255.571L250.013 250.823C249.384 249.347 247.671 248.656 246.193 249.285L241.447 251.305C239.969 251.935 239.279 253.647 239.908 255.125L241.929 259.871C241.996 260.031 242.081 260.18 242.175 260.321C239.911 261.943 237.905 263.952 236.268 266.304C236.128 266.216 235.979 266.136 235.82 266.072L231.044 264.121C229.557 263.515 227.855 264.229 227.248 265.716L225.297 270.492C224.691 271.979 225.407 273.681 226.892 274.289L231.669 276.239C231.828 276.303 231.989 276.351 232.152 276.385C231.661 279.292 231.704 282.211 232.225 285.023C232.06 285.061 231.895 285.109 231.735 285.177L226.988 287.197C226.276 287.501 225.725 288.061 225.433 288.776L225.428 288.789C225.137 289.511 225.145 290.301 225.449 291.017L227.471 295.764C228.099 297.241 229.812 297.931 231.289 297.301L236.036 295.283C236.197 295.213 236.344 295.128 236.485 295.035C238.105 297.297 240.116 299.304 242.469 300.943C242.38 301.083 242.301 301.232 242.236 301.391L240.285 306.167C239.679 307.653 240.395 309.355 241.88 309.963L246.657 311.912C248.144 312.52 249.847 311.804 250.453 310.317L252.404 305.541C252.468 305.383 252.515 305.221 252.549 305.059C255.456 305.549 258.376 305.508 261.189 304.985C261.227 305.149 261.273 305.315 261.341 305.475L263.363 310.223C263.667 310.939 264.232 311.492 264.953 311.783C265.675 312.075 266.467 312.065 267.181 311.76L271.929 309.741C272.663 309.428 273.203 308.848 273.483 308.161C273.767 307.467 273.784 306.664 273.467 305.921L271.447 301.175C271.379 301.013 271.292 300.865 271.199 300.725C273.463 299.104 275.469 297.093 277.107 294.743C277.248 294.829 277.396 294.909 277.555 294.975L282.331 296.924C283.819 297.531 285.52 296.816 286.128 295.329L288.077 290.553C288.684 289.068 287.969 287.364 286.483 286.757L281.707 284.807C281.547 284.743 281.385 284.695 281.224 284.66C281.713 281.755 281.672 278.835 281.149 276.021C281.315 275.984 281.479 275.937 281.64 275.868L286.387 273.848C287.121 273.535 287.661 272.956 287.941 272.269C288.224 271.576 288.241 270.772 287.925 270.028L285.905 265.281C285.276 263.804 283.563 263.115 282.085 263.743L277.339 265.764C277.18 265.832 277.031 265.916 276.888 266.011C275.268 263.747 273.259 261.741 270.907 260.103C270.995 259.963 271.075 259.815 271.139 259.655L273.089 254.879C273.696 253.393 272.981 251.689 271.495 251.083L266.719 249.132C265.232 248.525 263.529 249.243 262.923 250.728Z" fill="#A08BCD"/>
<path d="M226.112 250.84L225.875 250.605C224.068 252.436 221.684 253.351 219.295 253.352C216.947 253.351 214.6 252.467 212.8 250.691C210.969 248.885 210.053 246.5 210.053 244.111C210.053 241.763 210.939 239.416 212.715 237.617C214.52 235.787 216.905 234.871 219.295 234.871C221.643 234.871 223.989 235.755 225.788 237.531C227.619 239.337 228.535 241.723 228.535 244.112C228.535 246.46 227.649 248.807 225.875 250.605L226.112 250.84L226.349 251.073C228.252 249.147 229.203 246.627 229.201 244.112C229.203 241.552 228.219 238.992 226.257 237.056C224.329 235.153 221.809 234.203 219.295 234.204C216.736 234.203 214.175 235.187 212.24 237.148C210.337 239.076 209.387 241.596 209.387 244.111C209.387 246.669 210.371 249.231 212.332 251.165C214.26 253.068 216.78 254.019 219.295 254.019C221.853 254.019 224.413 253.035 226.349 251.073L226.112 250.84ZM231.291 226.48L231.053 226.247L228.503 228.829L228.269 229.115L228.527 229.325L228.704 229.043C226.919 227.929 224.98 227.161 222.983 226.741L222.913 227.067L223.243 227.121C223.263 227 223.277 226.871 223.277 226.732V226.705L223.237 223.091C223.221 221.791 222.161 220.745 220.864 220.744H220.835H220.837L217.224 220.785C215.924 220.801 214.879 221.86 214.877 223.157L214.879 223.188V223.185L214.919 226.799C214.92 226.947 214.94 227.084 214.963 227.212L215.291 227.152L215.215 226.828C213.28 227.281 211.408 228.061 209.687 229.169L209.868 229.449L210.123 229.235L209.896 228.964L209.885 228.952L207.303 226.403C206.841 225.947 206.236 225.719 205.635 225.72C205.024 225.719 204.409 225.955 203.947 226.424L201.408 228.997C200.952 229.457 200.724 230.063 200.724 230.664C200.724 231.275 200.96 231.889 201.429 232.353L204.013 234.903L204.299 235.136L204.509 234.879L204.227 234.701C203.112 236.485 202.345 238.425 201.924 240.423L202.251 240.492L202.305 240.163C202.18 240.141 202.048 240.127 201.909 240.127L201.884 240.128L201.892 240.461L201.888 240.128L198.275 240.168C197.647 240.175 197.052 240.427 196.612 240.873L196.607 240.88H196.605L196.604 240.881C196.168 241.327 195.928 241.917 195.928 242.539V242.571V242.568L195.969 246.181L196.303 246.179V245.845H196.301H195.964L195.968 246.183C195.984 247.481 197.044 248.527 198.34 248.527H198.367H198.368L201.983 248.487C202.133 248.485 202.272 248.464 202.397 248.44L202.336 248.113L202.011 248.189C202.464 250.124 203.244 251.996 204.352 253.717L204.632 253.537L204.417 253.283L204.148 253.511L204.136 253.52L201.587 256.103C201.131 256.564 200.903 257.169 200.903 257.771C200.903 258.381 201.139 258.996 201.608 259.459L204.18 261.997C204.641 262.453 205.245 262.681 205.847 262.68C206.459 262.681 207.073 262.444 207.536 261.975L210.085 259.392L210.32 259.107L210.061 258.896L209.885 259.179C211.671 260.293 213.609 261.06 215.608 261.481L215.676 261.155L215.348 261.1C215.327 261.221 215.311 261.353 215.311 261.497V261.52L215.644 261.513L215.311 261.516L215.352 265.131C215.359 265.763 215.613 266.36 216.065 266.801C216.509 267.236 217.101 267.477 217.723 267.476H217.751L221.365 267.436C222.015 267.428 222.603 267.159 223.025 266.731C223.449 266.303 223.711 265.712 223.711 265.064V265.037L223.671 261.423C223.668 261.272 223.648 261.133 223.624 261.008L223.296 261.071L223.373 261.395C225.308 260.941 227.18 260.16 228.901 259.053L228.72 258.773L228.465 258.988L228.693 259.257L228.704 259.269L231.287 261.819C231.748 262.275 232.352 262.503 232.953 262.503C233.564 262.503 234.179 262.267 234.643 261.796L237.181 259.225C237.636 258.764 237.864 258.159 237.864 257.559C237.864 256.947 237.628 256.332 237.159 255.869L234.576 253.32L234.291 253.085L234.079 253.344L234.361 253.52C235.476 251.735 236.244 249.796 236.664 247.797L236.339 247.729L236.284 248.057C236.405 248.079 236.539 248.095 236.681 248.095H236.699L240.315 248.053C240.964 248.047 241.553 247.776 241.976 247.347C242.399 246.92 242.661 246.329 242.66 245.683V245.656V245.655L242.62 242.04C242.604 240.74 241.545 239.695 240.248 239.695H240.219H240.22L236.603 239.735H236.605C236.46 239.737 236.321 239.755 236.191 239.78L236.253 240.107L236.577 240.031C236.124 238.096 235.344 236.225 234.236 234.504L233.956 234.685L234.171 234.94L234.441 234.712L234.453 234.701L237.003 232.119C237.457 231.657 237.685 231.053 237.685 230.452C237.685 229.84 237.449 229.225 236.981 228.763L234.408 226.224C233.947 225.769 233.343 225.541 232.741 225.541C232.131 225.541 231.516 225.777 231.053 226.247L231.291 226.48L231.528 226.715C231.861 226.376 232.3 226.208 232.741 226.208C233.176 226.208 233.608 226.371 233.94 226.699L236.512 229.237C236.851 229.571 237.019 230.009 237.019 230.452C237.019 230.887 236.856 231.317 236.528 231.651L234 234.212L233.741 234.429L233.517 234.619L233.676 234.865C234.741 236.52 235.492 238.321 235.928 240.184L236.001 240.495L236.315 240.435L236.616 240.401L240.231 240.361H240.248C241.179 240.36 241.944 241.115 241.953 242.048L241.993 245.663V245.661L241.995 245.683C241.993 246.148 241.807 246.569 241.501 246.879C241.195 247.189 240.775 247.383 240.308 247.387L236.693 247.428H236.696H236.681L236.393 247.4L236.077 247.348L236.012 247.66C235.607 249.584 234.868 251.449 233.796 253.167L233.641 253.416L234.129 253.816L236.691 256.344C237.028 256.677 237.197 257.116 237.197 257.559C237.197 257.992 237.035 258.424 236.707 258.756L234.168 261.328C233.833 261.667 233.395 261.835 232.953 261.836C232.519 261.835 232.087 261.672 231.755 261.344L229.193 258.816L228.975 258.559L228.787 258.335L228.54 258.493C226.884 259.557 225.084 260.309 223.22 260.745L222.909 260.819L222.969 261.133L223.004 261.431L223.044 265.044V265.043V265.064C223.044 265.531 222.857 265.952 222.552 266.261C222.245 266.571 221.825 266.764 221.357 266.769L217.744 266.809H217.723C217.272 266.809 216.855 266.64 216.532 266.324C216.204 266.004 216.024 265.581 216.017 265.124L215.977 261.508V261.505V261.497L216.005 261.209L216.057 260.895L215.745 260.828C213.821 260.424 211.956 259.685 210.239 258.613L209.989 258.457L209.589 258.945L207.061 261.507C206.728 261.845 206.289 262.013 205.847 262.013C205.412 262.013 204.981 261.851 204.648 261.523L202.076 258.984C201.739 258.651 201.571 258.212 201.569 257.771C201.571 257.336 201.733 256.904 202.06 256.571L204.589 254.011L204.848 253.792L205.072 253.604L204.913 253.357C203.847 251.701 203.096 249.899 202.66 248.037L202.588 247.725L202.273 247.785L201.976 247.82L198.36 247.86H198.361H198.34C197.411 247.861 196.645 247.107 196.635 246.175L196.301 246.179V246.512H196.303H196.64L196.595 242.557V242.539C196.595 242.089 196.765 241.671 197.08 241.348L196.843 241.115L197.077 241.351L197.085 241.344L197.087 241.341C197.407 241.019 197.825 240.84 198.281 240.835L201.899 240.795H201.9L201.909 240.793L202.196 240.82L202.511 240.872L202.576 240.56C202.983 238.637 203.72 236.772 204.792 235.055L204.948 234.805L204.459 234.405L201.897 231.879C201.56 231.544 201.392 231.105 201.391 230.664C201.392 230.229 201.555 229.797 201.883 229.465L204.42 226.893C204.755 226.555 205.193 226.387 205.635 226.387C206.069 226.387 206.501 226.549 206.835 226.877L209.395 229.404L209.612 229.663L209.801 229.888L210.048 229.729C211.704 228.664 213.504 227.913 215.367 227.477L215.676 227.404L215.619 227.092L215.585 226.791L215.544 223.177V223.176V223.157C215.544 222.227 216.299 221.461 217.232 221.452L220.848 221.411H220.864C221.795 221.411 222.56 222.165 222.571 223.099L222.611 226.712V226.732L222.585 227.012L222.532 227.327L222.845 227.393C224.768 227.799 226.633 228.537 228.351 229.609L228.599 229.764L228.999 229.276L231.528 226.715L231.291 226.48Z" fill="#A08BCD"/>
<path d="M28.2973 195.636H11.824V192.881H28.2973V195.636Z" fill="#212C5A"/>
<path d="M77.124 195.636H35.1052V192.881H77.124V195.636Z" fill="#212C5A"/>
<path d="M77.124 225.223H51.1145V222.467H77.124V225.223Z" fill="#212C5A"/>
<path d="M44.3078 225.223H11.824V222.467H44.3078V225.223Z" fill="#212C5A"/>
<path d="M48.0349 205.712H11.824V202.956H48.0349V205.712Z" fill="#212C5A"/>
<path d="M77.124 205.712H54.8417V202.956H77.124V205.712Z" fill="#212C5A"/>
<path d="M39.9333 215.605H11.824V212.849H39.9333V215.605Z" fill="#212C5A"/>
<path d="M77.124 215.605H51.5792V212.849H77.124V215.605Z" fill="#212C5A"/>
<path d="M48.4183 215.605H43.5312V212.849H48.4183V215.605Z" fill="#212C5A"/>
<path d="M462.467 453.715H445.995V450.959H462.467V453.715Z" fill="#212C5A"/>
<path d="M511.293 453.715H469.275V450.959H511.293V453.715Z" fill="#212C5A"/>
<path d="M511.293 483.299H485.284V480.544H511.293V483.299Z" fill="#212C5A"/>
<path d="M478.476 483.299H445.995V480.544H478.476V483.299Z" fill="#212C5A"/>
<path d="M482.204 463.791H445.995V461.034H482.204V463.791Z" fill="#212C5A"/>
<path d="M511.293 463.791H489.012V461.034H511.293V463.791Z" fill="#212C5A"/>
<path d="M474.104 473.683H445.995V470.927H474.104V473.683Z" fill="#212C5A"/>
<path d="M511.293 473.683H485.748V470.927H511.293V473.683Z" fill="#212C5A"/>
<path d="M482.587 473.683H477.7V470.927H482.587V473.683Z" fill="#212C5A"/>
<path d="M468.347 142.953C458.892 144.977 449.553 138.933 447.528 129.479C445.505 120.024 451.549 110.685 461.004 108.66C470.459 106.636 479.796 112.681 481.821 122.136C483.845 131.591 477.8 140.929 468.347 142.953ZM500.745 110.883L494.277 112.268C494.061 112.313 493.856 112.381 493.659 112.461C492.077 109.029 489.924 105.965 487.34 103.364C487.487 103.204 487.628 103.033 487.747 102.845L491.316 97.2746C492.427 95.5413 491.92 93.2279 490.185 92.1173L484.616 88.5479C482.883 87.4373 480.569 87.9439 479.459 89.6786L475.889 95.2493C475.769 95.4359 475.675 95.6333 475.589 95.8346C472.239 94.608 468.659 93.9346 464.984 93.9C464.975 93.6866 464.953 93.4719 464.907 93.2573L463.521 86.7879C463.091 84.7746 461.103 83.4879 459.089 83.9186L452.62 85.3039C450.607 85.7346 449.32 87.7226 449.751 89.7373L451.135 96.2053C451.183 96.4213 451.249 96.6266 451.329 96.824C447.897 98.4039 444.835 100.557 442.232 103.143C442.072 102.995 441.901 102.855 441.713 102.735L436.143 99.1653C435.308 98.6306 434.316 98.4506 433.348 98.6586L433.331 98.6626C432.355 98.876 431.523 99.4559 430.985 100.296L427.416 105.867C426.305 107.6 426.812 109.913 428.545 111.024L434.117 114.593C434.305 114.715 434.503 114.808 434.703 114.891C433.476 118.243 432.803 121.823 432.768 125.499C432.555 125.507 432.341 125.529 432.125 125.576L425.656 126.961C423.643 127.392 422.355 129.38 422.787 131.393L424.172 137.863C424.603 139.876 426.591 141.163 428.604 140.732L435.073 139.347C435.289 139.3 435.495 139.233 435.691 139.153C437.272 142.585 439.427 145.649 442.013 148.252C441.864 148.411 441.724 148.579 441.603 148.768L438.033 154.339C437.496 155.179 437.317 156.179 437.531 157.152C437.744 158.127 438.324 158.96 439.164 159.496L444.735 163.067C445.596 163.617 446.6 163.771 447.529 163.572C448.469 163.369 449.333 162.808 449.892 161.936L453.461 156.365C453.581 156.177 453.676 155.979 453.759 155.779C457.111 157.007 460.691 157.679 464.367 157.715C464.375 157.927 464.397 158.141 464.444 158.357L465.829 164.827C466.26 166.84 468.247 168.127 470.261 167.696L476.731 166.311C478.743 165.88 480.031 163.891 479.6 161.879L478.215 155.409C478.168 155.193 478.101 154.988 478.02 154.791C481.455 153.211 484.517 151.056 487.12 148.469C487.28 148.617 487.448 148.759 487.636 148.88L493.207 152.448C494.069 153 495.073 153.153 496.003 152.953C496.943 152.752 497.807 152.191 498.364 151.319L501.935 145.748C503.044 144.015 502.537 141.7 500.804 140.589L495.233 137.021C495.047 136.901 494.849 136.805 494.648 136.721C495.875 133.369 496.547 129.791 496.581 126.116C496.795 126.107 497.011 126.085 497.225 126.039L503.693 124.653C505.708 124.223 506.995 122.235 506.564 120.221L505.179 113.752C504.747 111.739 502.759 110.452 500.745 110.883Z" fill="#212C5A"/>
<path d="M324.853 118L329.948 106.569H332.561L337.672 118H334.896L330.716 107.908H331.761L327.564 118H324.853ZM327.401 115.55L328.103 113.542H333.982L334.7 115.55H327.401ZM338.858 118V106.569H341.046L347.791 114.799H346.729V106.569H349.342V118H347.17L340.409 109.77H341.471V118H338.858ZM357.566 118.196C356.662 118.196 355.83 118.054 355.067 117.771C354.316 117.477 353.658 117.064 353.092 116.53C352.536 115.997 352.101 115.371 351.785 114.652C351.48 113.934 351.328 113.145 351.328 112.284C351.328 111.424 351.48 110.635 351.785 109.917C352.101 109.198 352.542 108.572 353.108 108.039C353.674 107.505 354.338 107.097 355.1 106.814C355.862 106.52 356.7 106.373 357.615 106.373C358.627 106.373 359.536 106.542 360.342 106.879C361.159 107.217 361.844 107.707 362.4 108.349L360.701 109.917C360.288 109.481 359.836 109.16 359.346 108.953C358.856 108.735 358.323 108.627 357.746 108.627C357.19 108.627 356.684 108.714 356.227 108.888C355.77 109.062 355.372 109.312 355.035 109.639C354.708 109.966 354.452 110.352 354.267 110.798C354.093 111.245 354.006 111.74 354.006 112.284C354.006 112.818 354.093 113.308 354.267 113.754C354.452 114.201 354.708 114.592 355.035 114.93C355.372 115.257 355.764 115.507 356.211 115.681C356.668 115.855 357.169 115.942 357.713 115.942C358.236 115.942 358.742 115.861 359.232 115.697C359.732 115.523 360.217 115.235 360.685 114.832L362.187 116.743C361.567 117.211 360.843 117.57 360.015 117.82C359.199 118.071 358.382 118.196 357.566 118.196ZM359.771 116.4V112.105H362.187V116.743L359.771 116.4ZM369.723 118.196C368.101 118.196 366.833 117.744 365.919 116.841C365.004 115.937 364.547 114.647 364.547 112.97V106.569H367.192V112.872C367.192 113.961 367.415 114.745 367.862 115.224C368.308 115.703 368.934 115.942 369.74 115.942C370.545 115.942 371.171 115.703 371.618 115.224C372.064 114.745 372.287 113.961 372.287 112.872V106.569H374.9V112.97C374.9 114.647 374.443 115.937 373.528 116.841C372.614 117.744 371.346 118.196 369.723 118.196ZM377.514 118V106.569H380.16V115.844H385.892V118H377.514ZM385.931 118L391.026 106.569H393.639L398.75 118H395.974L391.794 107.908H392.839L388.642 118H385.931ZM388.479 115.55L389.181 113.542H395.06L395.778 115.55H388.479ZM399.936 118V106.569H404.884C405.907 106.569 406.789 106.738 407.53 107.075C408.27 107.402 408.841 107.875 409.244 108.496C409.647 109.116 409.848 109.857 409.848 110.717C409.848 111.566 409.647 112.301 409.244 112.921C408.841 113.531 408.27 113.999 407.53 114.326C406.789 114.652 405.907 114.816 404.884 114.816H401.406L402.582 113.656V118H399.936ZM407.203 118L404.345 113.852H407.17L410.061 118H407.203ZM402.582 113.95L401.406 112.709H404.737C405.554 112.709 406.163 112.535 406.566 112.186C406.969 111.827 407.17 111.337 407.17 110.717C407.17 110.085 406.969 109.595 406.566 109.247C406.163 108.899 405.554 108.725 404.737 108.725H401.406L402.582 107.467V113.95Z" fill="white"/>
<path d="M75.8467 448.347H79.7347V465.147H75.8467V448.347ZM68.2147 465.147H64.3267V448.347H68.2147V465.147ZM76.1347 458.259H67.9267V454.971H76.1347V458.259ZM87.1895 465.147V451.515H81.8135V448.347H96.4535V451.515H91.0775V465.147H87.1895ZM98.5454 465.147V448.347H101.761L108.913 460.203H107.209L114.241 448.347H117.433L117.481 465.147H113.833L113.809 453.939H114.481L108.865 463.371H107.113L101.377 453.939H102.193V465.147H98.5454ZM121.467 465.147V448.347H125.355V461.979H133.779V465.147H121.467Z" fill="white"/>
<path d="M91.5546 260V246.889H94.0644L101.8 256.329H100.582V246.889H103.579V260H101.088L93.3339 250.56H94.5514V260H91.5546ZM113.049 260.225C112.013 260.225 111.052 260.056 110.165 259.719C109.291 259.382 108.529 258.907 107.88 258.296C107.243 257.684 106.744 256.966 106.382 256.142C106.032 255.317 105.857 254.418 105.857 253.444C105.857 252.471 106.032 251.571 106.382 250.747C106.744 249.923 107.249 249.205 107.899 248.593C108.548 247.982 109.31 247.507 110.184 247.17C111.058 246.833 112.007 246.664 113.031 246.664C114.067 246.664 115.016 246.833 115.878 247.17C116.752 247.507 117.507 247.982 118.144 248.593C118.793 249.205 119.299 249.923 119.661 250.747C120.023 251.559 120.204 252.458 120.204 253.444C120.204 254.418 120.023 255.324 119.661 256.16C119.299 256.984 118.793 257.702 118.144 258.314C117.507 258.914 116.752 259.382 115.878 259.719C115.016 260.056 114.073 260.225 113.049 260.225ZM113.031 257.64C113.618 257.64 114.155 257.54 114.642 257.34C115.141 257.141 115.578 256.853 115.953 256.479C116.327 256.104 116.614 255.661 116.814 255.149C117.026 254.637 117.133 254.069 117.133 253.444C117.133 252.82 117.026 252.252 116.814 251.74C116.614 251.228 116.327 250.785 115.953 250.41C115.59 250.036 115.16 249.748 114.66 249.549C114.161 249.349 113.618 249.249 113.031 249.249C112.444 249.249 111.901 249.349 111.401 249.549C110.914 249.748 110.483 250.036 110.109 250.41C109.734 250.785 109.441 251.228 109.229 251.74C109.029 252.252 108.929 252.82 108.929 253.444C108.929 254.056 109.029 254.624 109.229 255.149C109.441 255.661 109.728 256.104 110.09 256.479C110.465 256.853 110.902 257.141 111.401 257.34C111.901 257.54 112.444 257.64 113.031 257.64ZM122.485 260V246.889H128.441C129.864 246.889 131.119 247.164 132.206 247.713C133.292 248.25 134.141 249.005 134.753 249.979C135.365 250.953 135.671 252.108 135.671 253.444C135.671 254.768 135.365 255.923 134.753 256.91C134.141 257.883 133.292 258.645 132.206 259.195C131.119 259.732 129.864 260 128.441 260H122.485ZM125.519 257.509H128.291C129.165 257.509 129.921 257.347 130.557 257.022C131.207 256.685 131.706 256.21 132.056 255.598C132.418 254.987 132.599 254.269 132.599 253.444C132.599 252.608 132.418 251.89 132.056 251.291C131.706 250.679 131.207 250.21 130.557 249.886C129.921 249.549 129.165 249.38 128.291 249.38H125.519V257.509ZM140.75 252.171H147.062V254.531H140.75V252.171ZM140.974 257.565H148.111V260H137.959V246.889H147.867V249.324H140.974V257.565ZM158.245 260.225C157.359 260.225 156.541 260.062 155.792 259.738C155.055 259.401 154.449 258.926 153.975 258.314L155.661 256.291C156.023 256.766 156.404 257.128 156.803 257.378C157.203 257.615 157.634 257.734 158.096 257.734C159.332 257.734 159.95 257.009 159.95 255.561V249.324H155.342V246.889H162.965V255.392C162.965 257.016 162.566 258.227 161.767 259.026C160.967 259.825 159.794 260.225 158.245 260.225ZM170.27 260.225C169.221 260.225 168.216 260.087 167.255 259.813C166.293 259.525 165.519 259.157 164.932 258.708L165.962 256.423C166.524 256.822 167.186 257.153 167.948 257.415C168.722 257.665 169.502 257.79 170.289 257.79C170.888 257.79 171.369 257.734 171.731 257.621C172.106 257.496 172.381 257.328 172.555 257.116C172.73 256.903 172.818 256.66 172.818 256.385C172.818 256.035 172.68 255.761 172.406 255.561C172.131 255.349 171.769 255.18 171.319 255.055C170.87 254.918 170.37 254.793 169.821 254.681C169.284 254.556 168.741 254.406 168.191 254.231C167.654 254.056 167.161 253.832 166.712 253.557C166.262 253.282 165.894 252.92 165.607 252.471C165.332 252.021 165.195 251.447 165.195 250.747C165.195 249.998 165.394 249.318 165.794 248.706C166.206 248.081 166.818 247.588 167.629 247.226C168.454 246.852 169.484 246.664 170.72 246.664C171.544 246.664 172.356 246.764 173.155 246.964C173.954 247.151 174.659 247.438 175.271 247.825L174.335 250.129C173.723 249.78 173.111 249.524 172.499 249.361C171.887 249.187 171.288 249.099 170.701 249.099C170.114 249.099 169.634 249.168 169.259 249.305C168.884 249.442 168.616 249.624 168.454 249.848C168.291 250.061 168.21 250.31 168.21 250.598C168.21 250.935 168.347 251.209 168.622 251.422C168.897 251.621 169.259 251.784 169.708 251.909C170.158 252.033 170.651 252.158 171.188 252.283C171.738 252.408 172.281 252.552 172.818 252.714C173.367 252.876 173.867 253.095 174.316 253.37C174.766 253.644 175.128 254.006 175.402 254.456C175.69 254.905 175.833 255.474 175.833 256.16C175.833 256.897 175.627 257.571 175.215 258.183C174.803 258.795 174.185 259.288 173.361 259.663C172.549 260.037 171.519 260.225 170.27 260.225Z" fill="white"/>
<path d="M370.732 439.365C369.087 439.365 367.554 439.102 366.133 438.574C364.732 438.025 363.513 437.254 362.478 436.259C361.442 435.264 360.63 434.096 360.041 432.756C359.472 431.415 359.188 429.943 359.188 428.339C359.188 426.735 359.472 425.263 360.041 423.922C360.63 422.582 361.442 421.414 362.478 420.419C363.534 419.424 364.762 418.663 366.163 418.135C367.564 417.587 369.098 417.312 370.763 417.312C372.611 417.312 374.276 417.637 375.758 418.287C377.261 418.917 378.52 419.851 379.535 421.089L376.367 424.014C375.636 423.181 374.824 422.562 373.931 422.156C373.037 421.729 372.062 421.516 371.006 421.516C370.011 421.516 369.098 421.678 368.265 422.003C367.432 422.328 366.712 422.795 366.102 423.404C365.493 424.014 365.016 424.735 364.671 425.567C364.346 426.4 364.183 427.324 364.183 428.339C364.183 429.354 364.346 430.278 364.671 431.111C365.016 431.943 365.493 432.664 366.102 433.273C366.712 433.883 367.432 434.35 368.265 434.675C369.098 435 370.011 435.162 371.006 435.162C372.062 435.162 373.037 434.959 373.931 434.553C374.824 434.126 375.636 433.487 376.367 432.634L379.535 435.558C378.52 436.797 377.261 437.741 375.758 438.391C374.276 439.041 372.6 439.365 370.732 439.365ZM389.754 439.365C388.049 439.365 386.414 439.142 384.85 438.695C383.287 438.228 382.028 437.629 381.073 436.898L382.749 433.182C383.662 433.832 384.739 434.37 385.977 434.796C387.236 435.203 388.505 435.406 389.785 435.406C390.759 435.406 391.541 435.314 392.13 435.132C392.739 434.928 393.186 434.654 393.47 434.309C393.755 433.964 393.897 433.568 393.897 433.121C393.897 432.553 393.673 432.106 393.227 431.781C392.78 431.436 392.191 431.162 391.46 430.959C390.729 430.735 389.917 430.532 389.023 430.349C388.15 430.146 387.267 429.903 386.373 429.618C385.5 429.334 384.698 428.968 383.967 428.522C383.236 428.075 382.637 427.486 382.17 426.755C381.723 426.024 381.5 425.09 381.5 423.953C381.5 422.734 381.825 421.628 382.474 420.633C383.144 419.617 384.14 418.815 385.459 418.226C386.8 417.617 388.475 417.312 390.485 417.312C391.826 417.312 393.146 417.475 394.445 417.8C395.745 418.104 396.892 418.571 397.887 419.201L396.364 422.948C395.369 422.379 394.374 421.963 393.379 421.699C392.384 421.414 391.409 421.272 390.455 421.272C389.5 421.272 388.719 421.384 388.109 421.607C387.5 421.831 387.064 422.125 386.8 422.491C386.536 422.836 386.404 423.242 386.404 423.709C386.404 424.257 386.627 424.704 387.074 425.049C387.521 425.374 388.109 425.638 388.841 425.841C389.572 426.044 390.374 426.247 391.247 426.45C392.14 426.654 393.024 426.887 393.897 427.151C394.79 427.415 395.603 427.77 396.334 428.217C397.065 428.664 397.654 429.253 398.1 429.984C398.567 430.715 398.801 431.639 398.801 432.756C398.801 433.954 398.466 435.05 397.796 436.045C397.126 437.04 396.12 437.842 394.78 438.452C393.46 439.061 391.785 439.365 389.754 439.365ZM409.179 439.365C407.473 439.365 405.838 439.142 404.274 438.695C402.711 438.228 401.452 437.629 400.497 436.898L402.173 433.182C403.087 433.832 404.163 434.37 405.401 434.796C406.66 435.203 407.93 435.406 409.209 435.406C410.184 435.406 410.965 435.314 411.554 435.132C412.164 434.928 412.61 434.654 412.895 434.309C413.179 433.964 413.321 433.568 413.321 433.121C413.321 432.553 413.098 432.106 412.651 431.781C412.204 431.436 411.615 431.162 410.884 430.959C410.153 430.735 409.341 430.532 408.447 430.349C407.574 430.146 406.691 429.903 405.797 429.618C404.924 429.334 404.122 428.968 403.391 428.522C402.66 428.075 402.061 427.486 401.594 426.755C401.147 426.024 400.924 425.09 400.924 423.953C400.924 422.734 401.249 421.628 401.899 420.633C402.569 419.617 403.564 418.815 404.884 418.226C406.224 417.617 407.899 417.312 409.91 417.312C411.25 417.312 412.57 417.475 413.869 417.8C415.169 418.104 416.316 418.571 417.311 419.201L415.788 422.948C414.793 422.379 413.798 421.963 412.803 421.699C411.808 421.414 410.834 421.272 409.879 421.272C408.925 421.272 408.143 421.384 407.534 421.607C406.924 421.831 406.488 422.125 406.224 422.491C405.96 422.836 405.828 423.242 405.828 423.709C405.828 424.257 406.051 424.704 406.498 425.049C406.945 425.374 407.534 425.638 408.265 425.841C408.996 426.044 409.798 426.247 410.671 426.45C411.565 426.654 412.448 426.887 413.321 427.151C414.215 427.415 415.027 427.77 415.758 428.217C416.489 428.664 417.078 429.253 417.525 429.984C417.992 430.715 418.225 431.639 418.225 432.756C418.225 433.954 417.89 435.05 417.22 436.045C416.55 437.04 415.545 437.842 414.204 438.452C412.884 439.061 411.209 439.365 409.179 439.365Z" fill="white"/>
<path d="M506.252 289.81V272.767H513.629C515.155 272.767 516.47 273.019 517.574 273.522C518.677 274.009 519.529 274.715 520.13 275.64C520.73 276.565 521.031 277.669 521.031 278.951C521.031 280.217 520.73 281.313 520.13 282.238C519.529 283.163 518.677 283.877 517.574 284.38C516.47 284.867 515.155 285.111 513.629 285.111H508.444L510.197 283.333V289.81H506.252ZM510.197 283.772L508.444 281.897H513.41C514.628 281.897 515.537 281.637 516.137 281.118C516.738 280.599 517.038 279.876 517.038 278.951C517.038 278.01 516.738 277.279 516.137 276.76C515.537 276.241 514.628 275.981 513.41 275.981H508.444L510.197 274.106V283.772ZM535.533 272.767H539.477V289.81H535.533V272.767ZM527.791 289.81H523.847V272.767H527.791V289.81ZM535.825 282.822H527.498V279.487H535.825V282.822ZM543.509 289.81V272.767H550.886C552.412 272.767 553.726 273.019 554.83 273.522C555.934 274.009 556.786 274.715 557.387 275.64C557.987 276.565 558.287 277.669 558.287 278.951C558.287 280.217 557.987 281.313 557.387 282.238C556.786 283.163 555.934 283.877 554.83 284.38C553.726 284.867 552.412 285.111 550.886 285.111H545.7L547.453 283.333V289.81H543.509ZM547.453 283.772L545.7 281.897H550.667C551.884 281.897 552.793 281.637 553.394 281.118C553.994 280.599 554.295 279.876 554.295 278.951C554.295 278.01 553.994 277.279 553.394 276.76C552.793 276.241 551.884 275.981 550.667 275.981H545.7L547.453 274.106V283.772Z" fill="white"/>
<path d="M199.423 156.265H127.108C120.42 156.265 115 150.845 115 144.157V120.108C115 113.421 120.42 108 127.108 108H199.423C206.111 108 211.531 113.421 211.531 120.108V144.157C211.531 150.845 206.111 156.265 199.423 156.265Z" fill="#4746A4"/>
<path d="M125.604 139V125.469H131.461C132.673 125.469 133.717 125.669 134.593 126.068C135.469 126.455 136.146 127.015 136.622 127.75C137.099 128.484 137.338 129.361 137.338 130.379C137.338 131.384 137.099 132.254 136.622 132.988C136.146 133.723 135.469 134.29 134.593 134.689C133.717 135.076 132.673 135.269 131.461 135.269H127.344L128.736 133.858V139H125.604ZM128.736 134.206L127.344 132.718H131.287C132.254 132.718 132.976 132.512 133.452 132.099C133.929 131.687 134.168 131.113 134.168 130.379C134.168 129.631 133.929 129.051 133.452 128.639C132.976 128.227 132.254 128.021 131.287 128.021H127.344L128.736 126.532V134.206ZM142.937 139V133.472L143.652 135.366L137.698 125.469H141.023L145.585 133.066H143.671L148.253 125.469H151.326L145.372 135.366L146.068 133.472V139H142.937ZM155.175 139V128.021H150.845V125.469H162.636V128.021H158.306V139H155.175ZM173.599 125.469H176.731V139H173.599V125.469ZM167.452 139H164.321V125.469H167.452V139ZM173.831 133.452H167.221V130.804H173.831V133.452ZM186.504 139.232C185.435 139.232 184.443 139.058 183.528 138.71C182.626 138.362 181.839 137.872 181.169 137.241C180.512 136.609 179.997 135.869 179.623 135.018C179.262 134.167 179.082 133.24 179.082 132.234C179.082 131.229 179.262 130.301 179.623 129.451C179.997 128.6 180.519 127.859 181.189 127.228C181.859 126.597 182.645 126.107 183.547 125.759C184.449 125.411 185.428 125.237 186.485 125.237C187.555 125.237 188.534 125.411 189.423 125.759C190.325 126.107 191.105 126.597 191.762 127.228C192.432 127.859 192.954 128.6 193.328 129.451C193.702 130.289 193.889 131.216 193.889 132.234C193.889 133.24 193.702 134.174 193.328 135.037C192.954 135.888 192.432 136.629 191.762 137.26C191.105 137.879 190.325 138.362 189.423 138.71C188.534 139.058 187.561 139.232 186.504 139.232ZM186.485 136.564C187.091 136.564 187.645 136.461 188.148 136.255C188.663 136.049 189.114 135.753 189.501 135.366C189.887 134.979 190.184 134.522 190.39 133.993C190.609 133.465 190.718 132.879 190.718 132.234C190.718 131.59 190.609 131.004 190.39 130.475C190.184 129.947 189.887 129.49 189.501 129.103C189.127 128.716 188.682 128.42 188.167 128.214C187.651 128.008 187.091 127.905 186.485 127.905C185.879 127.905 185.319 128.008 184.803 128.214C184.301 128.42 183.856 128.716 183.47 129.103C183.083 129.49 182.78 129.947 182.561 130.475C182.355 131.004 182.252 131.59 182.252 132.234C182.252 132.866 182.355 133.452 182.561 133.993C182.78 134.522 183.077 134.979 183.45 135.366C183.837 135.753 184.288 136.049 184.803 136.255C185.319 136.461 185.879 136.564 186.485 136.564ZM196.242 139V125.469H198.832L206.815 135.211H205.559V125.469H208.652V139H206.081L198.078 129.258H199.335V139H196.242Z" fill="white"/>
</svg>
